{"glyphs":{"0":{"ha":850,"x_min":0,"x_max":0,"o":"m 425 -19 b 56 496 163 -19 56 226 b 428 1013 56 767 161 1013 b 796 496 693 1013 796 764 b 425 -19 796 226 690 -19 m 189 496 b 425 85 189 288 254 85 b 661 496 599 85 661 288 b 428 908 661 704 600 908 b 189 496 254 908 189 703 "},"1":{"ha":507,"x_min":0,"x_max":0,"o":"m 283 851 b 29 644 235 763 129 678 l 8 769 b 308 993 133 810 250 900 l 408 993 l 408 165 b 415 0 408 104 411 53 l 283 0 l 283 851 "},"2":{"ha":771,"x_min":0,"x_max":0,"o":"m 51 0 b 49 65 50 24 49 42 b 586 736 49 424 586 442 b 404 908 586 840 511 908 b 151 672 271 908 185 807 l 44 742 b 406 1013 90 900 229 1013 b 719 740 586 1013 719 906 b 175 101 719 394 236 371 l 713 101 l 713 0 l 51 0 "},"3":{"ha":815,"x_min":0,"x_max":0,"o":"m 404 -19 b 29 249 224 -19 83 83 l 136 318 b 404 85 172 179 263 85 b 629 278 535 85 629 167 b 372 474 629 411 514 474 b 299 471 347 474 322 472 l 299 568 b 374 565 325 567 350 565 b 604 751 500 565 604 635 b 417 908 604 847 525 908 b 160 685 286 908 196 819 l 54 754 b 421 1013 110 907 238 1013 b 739 761 600 1013 739 915 b 507 524 739 635 640 549 b 764 275 650 503 764 426 b 404 -19 764 96 604 -19 "},"4":{"ha":821,"x_min":0,"x_max":0,"o":"m 535 246 l 13 246 l 13 331 l 538 993 l 660 993 l 660 347 l 790 347 l 790 246 l 660 246 l 660 161 b 667 0 660 106 661 53 l 535 0 m 535 347 l 535 836 l 144 347 "},"5":{"ha":788,"x_min":0,"x_max":0,"o":"m 388 -19 b 32 238 214 -19 86 76 l 139 307 b 388 85 174 178 251 85 b 613 332 531 85 613 197 b 394 564 613 463 531 564 b 163 411 289 564 215 497 l 65 468 l 151 993 l 697 993 l 697 890 l 239 890 l 182 547 b 417 667 233 618 311 667 b 746 335 617 667 746 528 b 388 -19 746 132 604 -19 "},"6":{"ha":844,"x_min":0,"x_max":0,"o":"m 419 -19 b 54 399 203 -19 54 136 b 463 1013 54 772 213 1013 b 793 771 626 1013 743 914 l 688 701 b 457 908 658 818 583 908 b 193 528 296 908 214 749 b 450 664 243 611 331 664 b 785 328 642 664 785 526 b 419 -19 785 128 635 -19 m 189 321 b 421 85 190 193 285 85 b 651 321 554 85 651 185 b 421 560 651 461 557 560 b 189 321 283 560 189 456 "},"7":{"ha":699,"x_min":0,"x_max":0,"o":"m 176 0 b 567 890 176 326 356 660 l 10 890 l 10 993 l 689 993 l 689 908 b 308 0 472 658 308 356 l 176 0 "},"8":{"ha":846,"x_min":0,"x_max":0,"o":"m 422 -19 b 50 276 215 -19 50 86 b 289 526 50 410 156 493 b 90 751 171 551 90 636 b 422 1013 90 921 242 1013 b 757 751 606 1013 757 922 b 558 526 757 636 676 551 b 796 276 690 493 796 410 b 422 -19 796 86 629 -19 m 183 283 b 422 85 183 158 288 85 b 663 283 558 85 663 158 b 422 478 663 404 553 478 b 183 283 293 478 183 404 m 222 744 b 422 581 222 644 311 581 b 624 744 535 581 624 644 b 422 908 624 850 533 908 b 222 744 313 908 222 850 "},"9":{"ha":844,"x_min":0,"x_max":0,"o":"m 425 1013 b 790 594 642 1013 790 857 b 382 -19 790 221 632 -19 b 51 222 218 -19 101 79 l 157 292 b 388 85 186 175 261 85 b 651 465 549 85 631 244 b 394 329 601 382 514 329 b 60 665 203 329 60 467 b 425 1013 60 865 210 1013 m 193 672 b 424 433 193 532 288 433 b 656 672 561 433 656 538 b 424 908 654 800 560 908 b 193 672 290 908 193 808 "}," ":{"ha":289,"x_min":0,"x_max":0,"o":""},"A":{"ha":899,"x_min":0,"x_max":0,"o":"m 379 993 l 519 993 l 896 0 l 751 0 l 642 293 l 236 293 l 185 156 b 143 0 167 103 151 58 l 3 0 m 603 396 l 440 833 l 275 396 "},"Á":{"ha":899,"x_min":0,"x_max":0,"o":"m 379 993 l 519 993 l 896 0 l 751 0 l 642 293 l 236 293 l 185 156 b 143 0 167 103 151 58 l 3 0 m 603 396 l 440 833 l 275 396 m 518 1233 l 689 1233 l 461 1061 l 357 1061 "},"Ă":{"ha":899,"x_min":0,"x_max":0,"o":"m 379 993 l 519 993 l 896 0 l 751 0 l 642 293 l 236 293 l 185 156 b 143 0 167 103 151 58 l 3 0 m 342 1235 b 444 1142 344 1182 382 1142 b 544 1235 504 1142 543 1182 l 631 1235 b 444 1061 631 1131 554 1061 b 256 1235 333 1061 256 1131 m 603 396 l 440 833 l 275 396 "},"Â":{"ha":899,"x_min":0,"x_max":0,"o":"m 379 993 l 519 993 l 896 0 l 751 0 l 642 293 l 236 293 l 185 156 b 143 0 167 103 151 58 l 3 0 m 389 1235 l 500 1235 l 690 1061 l 578 1061 l 443 1161 l 310 1061 l 197 1061 m 603 396 l 440 833 l 275 396 "},"Ä":{"ha":899,"x_min":0,"x_max":0,"o":"m 379 993 l 519 993 l 896 0 l 751 0 l 642 293 l 236 293 l 185 156 b 143 0 167 103 151 58 l 3 0 m 261 1229 l 389 1229 l 389 1101 l 261 1101 m 603 396 l 440 833 l 275 396 m 499 1229 l 625 1229 l 625 1101 l 499 1101 "},"Ạ":{"ha":899,"x_min":0,"x_max":0,"o":"m 379 993 l 519 993 l 896 0 l 751 0 l 642 293 l 236 293 l 185 156 b 143 0 167 103 151 58 l 3 0 m 603 396 l 440 833 l 275 396 m 375 -65 l 515 -65 l 515 -199 l 375 -199 "},"À":{"ha":899,"x_min":0,"x_max":0,"o":"m 379 993 l 519 993 l 896 0 l 751 0 l 642 293 l 236 293 l 185 156 b 143 0 167 103 151 58 l 3 0 m 369 1233 l 531 1061 l 426 1061 l 199 1233 m 603 396 l 440 833 l 275 396 "},"Ā":{"ha":899,"x_min":0,"x_max":0,"o":"m 379 993 l 519 993 l 896 0 l 751 0 l 642 293 l 236 293 l 185 156 b 143 0 167 103 151 58 l 3 0 m 239 1183 l 644 1183 l 644 1090 l 239 1090 m 603 396 l 440 833 l 275 396 "},"Ą":{"ha":899,"x_min":0,"x_max":0,"o":"m 379 993 l 519 993 l 896 0 l 897 0 b 769 -161 811 -71 769 -115 b 825 -208 769 -190 790 -208 b 904 -179 858 -208 882 -197 l 925 -244 b 815 -274 894 -262 854 -274 b 685 -172 738 -274 685 -236 b 824 0 685 -112 729 -61 l 751 0 l 642 293 l 236 293 l 185 156 b 143 0 167 103 151 58 l 3 0 m 603 396 l 440 833 l 275 396 "},"Å":{"ha":899,"x_min":0,"x_max":0,"o":"m 379 993 l 519 993 l 896 0 l 751 0 l 642 293 l 236 293 l 185 156 b 143 0 167 103 151 58 l 3 0 m 603 396 l 440 833 l 275 396 m 288 1181 b 444 1300 288 1250 351 1300 b 600 1181 536 1300 600 1250 b 444 1061 600 1110 536 1061 b 288 1181 351 1061 288 1110 m 365 1182 b 444 1119 365 1144 396 1119 b 524 1182 492 1119 524 1144 b 444 1240 524 1217 492 1240 b 365 1182 396 1240 365 1217 "},"Ǻ":{"ha":899,"x_min":0,"x_max":0,"o":"m 379 993 l 519 993 l 896 0 l 751 0 l 642 293 l 236 293 l 185 156 b 143 0 167 103 151 58 l 3 0 m 603 396 l 440 833 l 275 396 m 288 1181 b 382 1292 288 1233 324 1275 l 381 1292 l 542 1464 l 713 1464 l 490 1296 b 600 1181 557 1282 600 1238 b 444 1061 600 1110 536 1061 b 288 1181 351 1061 288 1110 m 365 1182 b 444 1119 365 1144 396 1119 b 524 1182 492 1119 524 1144 b 444 1240 524 1217 492 1240 b 365 1182 396 1240 365 1217 "},"Ã":{"ha":899,"x_min":0,"x_max":0,"o":"m 379 993 l 519 993 l 896 0 l 751 0 l 642 293 l 236 293 l 185 156 b 143 0 167 103 151 58 l 3 0 m 213 1104 b 343 1246 217 1182 256 1246 b 550 1165 439 1246 493 1165 b 606 1235 585 1165 607 1188 l 679 1224 b 547 1081 682 1144 633 1081 b 340 1161 451 1081 397 1161 b 286 1092 307 1161 288 1139 l 213 1104 m 603 396 l 440 833 l 275 396 "},"Æ":{"ha":1335,"x_min":0,"x_max":0,"o":"m 564 993 l 1296 993 l 1296 886 l 746 886 l 746 568 l 1236 568 l 1236 463 l 746 463 l 746 107 l 1296 107 l 1296 0 l 610 0 l 610 292 l 272 292 l 213 193 b 114 0 172 128 143 74 l -37 0 m 610 396 l 610 850 l 335 396 "},"Ǽ":{"ha":1335,"x_min":0,"x_max":0,"o":"m 564 993 l 1296 993 l 1296 886 l 746 886 l 746 568 l 1236 568 l 1236 463 l 746 463 l 746 107 l 1296 107 l 1296 0 l 610 0 l 610 292 l 272 292 l 213 193 b 114 0 172 128 143 74 l -37 0 m 610 396 l 610 850 l 335 396 m 813 1233 l 983 1233 l 756 1061 l 651 1061 "},"B":{"ha":904,"x_min":0,"x_max":0,"o":"m 96 993 l 507 993 b 832 761 681 993 832 922 b 590 517 832 625 725 546 b 860 289 735 497 860 440 b 501 0 860 101 699 0 l 96 0 m 485 107 b 714 294 613 107 714 178 b 488 460 714 408 611 460 l 232 460 l 232 107 m 479 567 b 686 743 593 567 686 636 b 481 886 686 844 590 886 l 232 886 l 232 567 "},"C":{"ha":949,"x_min":0,"x_max":0,"o":"m 521 -19 b 47 482 236 -19 47 196 b 521 1013 47 785 228 1013 b 917 719 707 1013 856 911 l 800 643 b 521 907 767 811 665 907 b 193 482 314 907 193 718 b 521 86 193 258 319 86 b 815 338 669 86 774 186 l 931 264 b 521 -19 847 86 710 -19 "},"Ć":{"ha":949,"x_min":0,"x_max":0,"o":"m 521 -19 b 47 482 236 -19 47 196 b 521 1013 47 785 228 1013 b 917 719 707 1013 856 911 l 800 643 b 521 907 767 811 665 907 b 193 482 314 907 193 718 b 521 86 193 258 319 86 b 815 338 669 86 774 186 l 931 264 b 521 -19 847 86 710 -19 m 600 1233 l 771 1233 l 543 1061 l 439 1061 "},"Č":{"ha":949,"x_min":0,"x_max":0,"o":"m 521 -19 b 47 482 236 -19 47 196 b 521 1013 47 785 228 1013 b 917 719 707 1013 856 911 l 800 643 b 521 907 767 811 665 907 b 193 482 314 907 193 718 b 521 86 193 258 319 86 b 815 338 669 86 774 186 l 931 264 b 521 -19 847 86 710 -19 m 392 1235 l 526 1135 l 660 1235 l 772 1235 l 581 1061 l 469 1061 l 279 1235 "},"Ç":{"ha":949,"x_min":0,"x_max":0,"o":"m 508 -281 b 378 -254 467 -281 417 -271 l 369 -172 b 508 -210 419 -197 460 -210 b 599 -168 544 -210 599 -206 b 444 -108 599 -139 556 -118 l 494 -19 b 47 482 224 -6 47 206 b 521 1013 47 785 228 1013 b 917 719 707 1013 856 911 l 800 643 b 521 907 767 811 665 907 b 193 482 314 907 193 718 b 521 86 193 258 319 86 b 815 338 669 86 774 186 l 931 264 b 590 -14 858 108 743 8 l 558 -68 b 692 -168 639 -78 692 -114 b 508 -281 692 -239 614 -281 "},"Ĉ":{"ha":949,"x_min":0,"x_max":0,"o":"m 521 -19 b 47 482 236 -19 47 196 b 521 1013 47 785 228 1013 b 917 719 707 1013 856 911 l 800 643 b 521 907 767 811 665 907 b 193 482 314 907 193 718 b 521 86 193 258 319 86 b 815 338 669 86 774 186 l 931 264 b 521 -19 847 86 710 -19 m 469 1235 l 581 1235 l 771 1061 l 658 1061 l 524 1161 l 390 1061 l 278 1061 "},"Ċ":{"ha":949,"x_min":0,"x_max":0,"o":"m 521 -19 b 47 482 236 -19 47 196 b 521 1013 47 785 228 1013 b 917 719 707 1013 856 911 l 800 643 b 521 907 767 811 665 907 b 193 482 314 907 193 718 b 521 86 193 258 319 86 b 815 338 669 86 774 186 l 931 264 b 521 -19 847 86 710 -19 m 456 1233 l 596 1233 l 596 1100 l 456 1100 "},"D":{"ha":993,"x_min":0,"x_max":0,"o":"m 96 993 l 447 993 b 946 499 740 993 946 790 b 440 0 946 207 738 0 l 96 0 m 446 107 b 800 499 654 107 800 269 b 447 886 800 726 654 886 l 231 886 l 231 107 "},"Ð":{"ha":993,"x_min":0,"x_max":0,"o":"m 96 539 l -40 539 l -40 632 l 96 632 l 96 993 l 447 993 b 946 499 740 993 946 790 b 440 0 946 207 738 0 l 96 0 m 446 107 b 800 499 654 107 800 269 b 447 886 800 726 654 886 l 231 886 l 231 632 l 365 632 l 365 539 l 231 539 l 231 107 "},"Ď":{"ha":993,"x_min":0,"x_max":0,"o":"m 96 993 l 447 993 b 946 499 740 993 946 790 b 440 0 946 207 738 0 l 96 0 m 304 1235 l 439 1135 l 572 1235 l 685 1235 l 493 1061 l 382 1061 l 192 1235 m 446 107 b 800 499 654 107 800 269 b 447 886 800 726 654 886 l 231 886 l 231 107 "},"Đ":{"ha":993,"x_min":0,"x_max":0,"o":"m 96 539 l -40 539 l -40 632 l 96 632 l 96 993 l 447 993 b 946 499 740 993 946 790 b 440 0 946 207 738 0 l 96 0 m 446 107 b 800 499 654 107 800 269 b 447 886 800 726 654 886 l 231 886 l 231 632 l 365 632 l 365 539 l 231 539 l 231 107 "},"E":{"ha":828,"x_min":0,"x_max":0,"o":"m 96 993 l 782 993 l 782 886 l 232 886 l 232 568 l 722 568 l 722 463 l 232 463 l 232 107 l 782 107 l 782 0 l 96 0 "},"É":{"ha":828,"x_min":0,"x_max":0,"o":"m 96 993 l 782 993 l 782 886 l 232 886 l 232 568 l 722 568 l 722 463 l 232 463 l 232 107 l 782 107 l 782 0 l 96 0 m 532 1233 l 703 1233 l 475 1061 l 371 1061 "},"Ĕ":{"ha":828,"x_min":0,"x_max":0,"o":"m 96 993 l 782 993 l 782 886 l 232 886 l 232 568 l 722 568 l 722 463 l 232 463 l 232 107 l 782 107 l 782 0 l 96 0 m 356 1235 b 458 1142 358 1182 396 1142 b 558 1235 518 1142 557 1182 l 644 1235 b 458 1061 644 1131 568 1061 b 269 1235 347 1061 269 1131 "},"Ě":{"ha":828,"x_min":0,"x_max":0,"o":"m 96 993 l 782 993 l 782 886 l 232 886 l 232 568 l 722 568 l 722 463 l 232 463 l 232 107 l 782 107 l 782 0 l 96 0 m 324 1235 l 458 1135 l 592 1235 l 704 1235 l 513 1061 l 401 1061 l 211 1235 "},"Ê":{"ha":828,"x_min":0,"x_max":0,"o":"m 96 993 l 782 993 l 782 886 l 232 886 l 232 568 l 722 568 l 722 463 l 232 463 l 232 107 l 782 107 l 782 0 l 96 0 m 401 1235 l 513 1235 l 703 1061 l 590 1061 l 456 1161 l 322 1061 l 210 1061 "},"Ë":{"ha":828,"x_min":0,"x_max":0,"o":"m 96 993 l 782 993 l 782 886 l 232 886 l 232 568 l 722 568 l 722 463 l 232 463 l 232 107 l 782 107 l 782 0 l 96 0 m 275 1229 l 403 1229 l 403 1101 l 275 1101 m 513 1229 l 639 1229 l 639 1101 l 513 1101 "},"Ė":{"ha":828,"x_min":0,"x_max":0,"o":"m 96 993 l 782 993 l 782 886 l 232 886 l 232 568 l 722 568 l 722 463 l 232 463 l 232 107 l 782 107 l 782 0 l 96 0 m 386 1233 l 526 1233 l 526 1100 l 386 1100 "},"Ẹ":{"ha":828,"x_min":0,"x_max":0,"o":"m 96 993 l 782 993 l 782 886 l 232 886 l 232 568 l 722 568 l 722 463 l 232 463 l 232 107 l 782 107 l 782 0 l 96 0 m 386 -65 l 526 -65 l 526 -199 l 386 -199 "},"È":{"ha":828,"x_min":0,"x_max":0,"o":"m 96 993 l 782 993 l 782 886 l 232 886 l 232 568 l 722 568 l 722 463 l 232 463 l 232 107 l 782 107 l 782 0 l 96 0 m 383 1233 l 544 1061 l 440 1061 l 213 1233 "},"Ē":{"ha":828,"x_min":0,"x_max":0,"o":"m 96 993 l 782 993 l 782 886 l 232 886 l 232 568 l 722 568 l 722 463 l 232 463 l 232 107 l 782 107 l 782 0 l 96 0 m 253 1183 l 658 1183 l 658 1090 l 253 1090 "},"Ę":{"ha":828,"x_min":0,"x_max":0,"o":"m 96 993 l 782 993 l 782 886 l 232 886 l 232 568 l 722 568 l 722 463 l 232 463 l 232 107 l 782 107 l 782 0 b 654 -161 696 -71 654 -115 b 710 -208 654 -190 675 -208 b 789 -179 743 -208 767 -197 l 810 -244 b 700 -274 779 -262 739 -274 b 569 -172 622 -274 569 -236 b 708 0 569 -112 614 -61 l 96 0 "},"Ẽ":{"ha":828,"x_min":0,"x_max":0,"o":"m 96 993 l 782 993 l 782 886 l 232 886 l 232 568 l 722 568 l 722 463 l 232 463 l 232 107 l 782 107 l 782 0 l 96 0 m 226 1104 b 357 1246 231 1182 269 1246 b 564 1165 453 1246 507 1165 b 619 1235 599 1165 621 1188 l 693 1224 b 561 1081 696 1144 647 1081 b 354 1161 465 1081 411 1161 b 300 1092 321 1161 301 1139 l 226 1104 "},"F":{"ha":771,"x_min":0,"x_max":0,"o":"m 96 993 l 758 993 l 758 886 l 232 886 l 232 569 l 685 569 l 685 463 l 232 463 l 232 181 b 239 0 232 121 233 61 l 96 0 "},"G":{"ha":989,"x_min":0,"x_max":0,"o":"m 490 -19 b 47 479 235 -19 47 181 b 521 1013 47 782 224 1013 b 917 719 713 1013 860 906 l 800 643 b 521 907 767 801 672 907 b 193 479 310 907 193 714 b 501 86 193 233 329 86 b 786 389 682 86 779 228 l 788 419 l 528 419 l 528 528 l 911 528 l 911 181 b 918 0 911 121 913 61 l 796 0 l 796 208 b 490 -19 758 68 643 -19 "},"Ğ":{"ha":989,"x_min":0,"x_max":0,"o":"m 490 -19 b 47 479 235 -19 47 181 b 521 1013 47 782 224 1013 b 917 719 713 1013 860 906 l 800 643 b 521 907 767 801 672 907 b 193 479 310 907 193 714 b 501 86 193 233 329 86 b 786 389 682 86 779 228 l 788 419 l 528 419 l 528 528 l 911 528 l 911 181 b 918 0 911 121 913 61 l 796 0 l 796 208 b 490 -19 758 68 643 -19 m 425 1235 b 528 1142 428 1182 465 1142 b 628 1235 588 1142 626 1182 l 714 1235 b 528 1061 714 1131 638 1061 b 339 1235 417 1061 339 1131 "},"Ǧ":{"ha":989,"x_min":0,"x_max":0,"o":"m 490 -19 b 47 479 235 -19 47 181 b 521 1013 47 782 224 1013 b 917 719 713 1013 860 906 l 800 643 b 521 907 767 801 672 907 b 193 479 310 907 193 714 b 501 86 193 233 329 86 b 786 389 682 86 779 228 l 788 419 l 528 419 l 528 528 l 911 528 l 911 181 b 918 0 911 121 913 61 l 796 0 l 796 208 b 490 -19 758 68 643 -19 m 393 1235 l 528 1135 l 661 1235 l 774 1235 l 582 1061 l 471 1061 l 281 1235 "},"Ĝ":{"ha":989,"x_min":0,"x_max":0,"o":"m 490 -19 b 47 479 235 -19 47 181 b 521 1013 47 782 224 1013 b 917 719 713 1013 860 906 l 800 643 b 521 907 767 801 672 907 b 193 479 310 907 193 714 b 501 86 193 233 329 86 b 786 389 682 86 779 228 l 788 419 l 528 419 l 528 528 l 911 528 l 911 181 b 918 0 911 121 913 61 l 796 0 l 796 208 b 490 -19 758 68 643 -19 m 471 1235 l 582 1235 l 772 1061 l 660 1061 l 525 1161 l 392 1061 l 279 1061 "},"Ģ":{"ha":989,"x_min":0,"x_max":0,"o":"m 490 -19 b 47 479 235 -19 47 181 b 521 1013 47 782 224 1013 b 917 719 713 1013 860 906 l 800 643 b 521 907 767 801 672 907 b 193 479 310 907 193 714 b 501 86 193 233 329 86 b 786 389 682 86 779 228 l 788 419 l 528 419 l 528 528 l 911 528 l 911 181 b 918 0 911 121 913 61 l 796 0 l 796 208 b 490 -19 758 68 643 -19 m 446 -85 l 557 -85 b 518 -344 542 -153 528 -253 l 432 -344 "},"Ġ":{"ha":989,"x_min":0,"x_max":0,"o":"m 490 -19 b 47 479 235 -19 47 181 b 521 1013 47 782 224 1013 b 917 719 713 1013 860 906 l 800 643 b 521 907 767 801 672 907 b 193 479 310 907 193 714 b 501 86 193 233 329 86 b 786 389 682 86 779 228 l 788 419 l 528 419 l 528 528 l 911 528 l 911 181 b 918 0 911 121 913 61 l 796 0 l 796 208 b 490 -19 758 68 643 -19 m 457 1233 l 597 1233 l 597 1100 l 457 1100 "},"Ḡ":{"ha":989,"x_min":0,"x_max":0,"o":"m 490 -19 b 47 479 235 -19 47 181 b 521 1013 47 782 224 1013 b 917 719 713 1013 860 906 l 800 643 b 521 907 767 801 672 907 b 193 479 310 907 193 714 b 501 86 193 233 329 86 b 786 389 682 86 779 228 l 788 419 l 528 419 l 528 528 l 911 528 l 911 181 b 918 0 911 121 913 61 l 796 0 l 796 208 b 490 -19 758 68 643 -19 m 322 1183 l 728 1183 l 728 1090 l 322 1090 "},"H":{"ha":968,"x_min":0,"x_max":0,"o":"m 738 481 l 232 481 l 232 0 l 96 0 l 96 993 l 232 993 l 232 588 l 738 588 l 738 993 l 872 993 l 872 0 l 738 0 "},"Ħ":{"ha":968,"x_min":0,"x_max":0,"o":"m 738 481 l 232 481 l 232 0 l 96 0 l 96 726 l 8 726 l 8 803 l 96 803 l 96 993 l 232 993 l 232 803 l 738 803 l 738 993 l 872 993 l 872 803 l 961 803 l 961 726 l 872 726 l 872 0 l 738 0 m 738 588 l 738 726 l 232 726 l 232 588 "},"Ĥ":{"ha":968,"x_min":0,"x_max":0,"o":"m 738 481 l 232 481 l 232 0 l 96 0 l 96 993 l 232 993 l 232 588 l 738 588 l 738 993 l 872 993 l 872 0 l 738 0 m 429 1235 l 540 1235 l 731 1061 l 618 1061 l 483 1161 l 350 1061 l 238 1061 "},"I":{"ha":326,"x_min":0,"x_max":0,"o":"m 96 993 l 231 993 l 231 0 l 96 0 "},"Ĳ":{"ha":968,"x_min":0,"x_max":0,"o":"m 96 993 l 231 993 l 231 0 l 96 0 m 468 282 b 607 88 468 160 521 88 b 742 257 693 88 742 154 l 742 813 b 735 993 742 874 740 932 l 876 993 l 876 260 b 607 -19 876 90 778 -19 b 336 238 435 -19 343 97 "},"Í":{"ha":326,"x_min":0,"x_max":0,"o":"m 96 993 l 231 993 l 231 0 l 96 0 m 240 1233 l 411 1233 l 183 1061 l 79 1061 "},"Ĭ":{"ha":326,"x_min":0,"x_max":0,"o":"m 96 993 l 231 993 l 231 0 l 96 0 m 64 1235 b 167 1142 67 1182 104 1142 b 267 1235 226 1142 265 1182 l 353 1235 b 167 1061 353 1131 276 1061 b -22 1235 56 1061 -22 1131 "},"Î":{"ha":326,"x_min":0,"x_max":0,"o":"m 96 993 l 231 993 l 231 0 l 96 0 m 110 1235 l 221 1235 l 411 1061 l 299 1061 l 164 1161 l 31 1061 l -82 1061 "},"Ï":{"ha":326,"x_min":0,"x_max":0,"o":"m 96 993 l 231 993 l 231 0 l 96 0 m -17 1229 l 111 1229 l 111 1101 l -17 1101 m 221 1229 l 347 1229 l 347 1101 l 221 1101 "},"İ":{"ha":326,"x_min":0,"x_max":0,"o":"m 96 993 l 231 993 l 231 0 l 96 0 m 96 1233 l 236 1233 l 236 1100 l 96 1100 "},"Ị":{"ha":326,"x_min":0,"x_max":0,"o":"m 96 993 l 231 993 l 231 0 l 96 0 m 93 -65 l 233 -65 l 233 -199 l 93 -199 "},"Ì":{"ha":326,"x_min":0,"x_max":0,"o":"m 96 993 l 231 993 l 231 0 l 96 0 m 92 1233 l 253 1061 l 149 1061 l -81 1233 "},"Ī":{"ha":326,"x_min":0,"x_max":0,"o":"m 96 993 l 231 993 l 231 0 l 96 0 m -39 1183 l 367 1183 l 367 1090 l -39 1090 "},"Į":{"ha":326,"x_min":0,"x_max":0,"o":"m 96 993 l 231 993 l 231 0 l 232 0 b 104 -161 146 -71 104 -115 b 160 -208 104 -190 125 -208 b 239 -179 193 -208 217 -197 l 260 -244 b 150 -274 229 -262 189 -274 b 19 -172 72 -274 19 -236 b 158 0 19 -112 64 -61 l 96 0 "},"Ĩ":{"ha":326,"x_min":0,"x_max":0,"o":"m 96 993 l 231 993 l 231 0 l 96 0 m -65 1104 b 65 1246 -61 1182 -22 1246 b 272 1165 161 1246 215 1165 b 328 1235 307 1165 329 1188 l 401 1224 b 269 1081 404 1144 356 1081 b 63 1161 174 1081 119 1161 b 8 1092 29 1161 10 1139 l -65 1104 "},"J":{"ha":640,"x_min":0,"x_max":0,"o":"m 281 -19 b 10 238 108 -19 17 97 l 142 282 b 281 88 142 160 194 88 b 415 257 367 88 415 154 l 415 813 b 408 993 415 874 414 932 l 550 993 l 550 260 b 281 -19 550 90 451 -19 "},"Ĵ":{"ha":640,"x_min":0,"x_max":0,"o":"m 281 -19 b 10 238 108 -19 17 97 l 142 282 b 281 88 142 160 194 88 b 415 257 367 88 415 154 l 415 813 b 408 993 415 874 414 932 l 550 993 l 550 260 b 281 -19 550 90 451 -19 m 426 1235 l 538 1235 l 728 1061 l 615 1061 l 481 1161 l 347 1061 l 235 1061 "},"K":{"ha":858,"x_min":0,"x_max":0,"o":"m 96 993 l 232 993 l 232 486 l 576 875 b 658 993 608 914 635 947 l 819 993 l 456 583 l 888 0 l 722 0 l 365 483 l 232 335 l 232 0 l 96 0 "},"Ķ":{"ha":858,"x_min":0,"x_max":0,"o":"m 96 993 l 232 993 l 232 486 l 576 875 b 658 993 608 914 635 947 l 819 993 l 456 583 l 888 0 l 722 0 l 365 483 l 232 335 l 232 0 l 96 0 m 417 -85 l 528 -85 b 489 -344 513 -153 499 -253 l 403 -344 "},"L":{"ha":736,"x_min":0,"x_max":0,"o":"m 96 993 l 239 993 b 232 813 233 931 232 878 l 232 107 l 725 107 l 725 0 l 96 0 "},"Ĺ":{"ha":736,"x_min":0,"x_max":0,"o":"m 96 993 l 239 993 b 232 813 233 931 232 878 l 232 107 l 725 107 l 725 0 l 96 0 m 242 1233 l 413 1233 l 185 1061 l 81 1061 "},"Ľ":{"ha":736,"x_min":0,"x_max":0,"o":"m 96 993 l 239 993 b 232 813 233 931 232 878 l 232 107 l 725 107 l 725 0 l 96 0 m 361 993 l 472 993 b 433 733 457 925 443 825 l 347 733 "},"Ļ":{"ha":736,"x_min":0,"x_max":0,"o":"m 96 993 l 239 993 b 232 813 233 931 232 878 l 232 107 l 725 107 l 725 0 l 96 0 m 368 -85 l 479 -85 b 440 -344 464 -153 450 -253 l 354 -344 "},"Ŀ":{"ha":736,"x_min":0,"x_max":0,"o":"m 96 993 l 239 993 b 232 813 233 931 232 878 l 232 107 l 725 107 l 725 0 l 96 0 m 450 544 l 590 544 l 590 411 l 450 411 "},"Ł":{"ha":833,"x_min":0,"x_max":0,"o":"m 18 376 l 193 488 l 193 993 l 336 993 b 329 813 331 931 329 878 l 329 575 l 526 700 l 572 625 l 329 471 l 329 107 l 822 107 l 822 0 l 193 0 l 193 385 l 61 301 "},"M":{"ha":1225,"x_min":0,"x_max":0,"o":"m 153 993 l 308 993 l 558 365 b 610 210 592 282 610 210 b 674 364 610 210 640 282 l 926 993 l 1072 993 l 1174 0 l 1042 0 l 978 635 b 967 801 969 724 967 801 b 906 646 967 801 939 729 l 654 28 l 550 28 l 306 657 b 249 814 274 740 249 814 b 235 649 249 814 243 736 l 189 192 b 179 0 182 124 176 67 l 53 0 "},"N":{"ha":978,"x_min":0,"x_max":0,"o":"m 96 993 l 250 993 l 771 176 l 771 993 l 882 993 l 882 0 l 725 0 l 207 811 l 207 0 l 96 0 "},"Ń":{"ha":978,"x_min":0,"x_max":0,"o":"m 96 993 l 250 993 l 771 176 l 771 993 l 882 993 l 882 0 l 725 0 l 207 811 l 207 0 l 96 0 m 561 1233 l 732 1233 l 504 1061 l 400 1061 "},"Ň":{"ha":978,"x_min":0,"x_max":0,"o":"m 96 993 l 250 993 l 771 176 l 771 993 l 882 993 l 882 0 l 725 0 l 207 811 l 207 0 l 96 0 m 353 1235 l 488 1135 l 621 1235 l 733 1235 l 542 1061 l 431 1061 l 240 1235 "},"Ņ":{"ha":978,"x_min":0,"x_max":0,"o":"m 96 993 l 250 993 l 771 176 l 771 993 l 882 993 l 882 0 l 725 0 l 207 811 l 207 0 l 96 0 m 439 -85 l 550 -85 b 511 -344 535 -153 521 -253 l 425 -344 "},"Ɲ":{"ha":976,"x_min":0,"x_max":0,"o":"m 250 993 l 771 176 l 771 993 l 882 993 l 882 0 l 725 0 l 207 811 l 207 756 l 213 756 l 213 -122 b 63 -297 213 -236 154 -297 b -29 -279 28 -297 -3 -290 l -44 -164 b 38 -192 -19 -182 1 -192 b 96 -114 63 -192 96 -182 l 96 993 "},"Ñ":{"ha":978,"x_min":0,"x_max":0,"o":"m 96 993 l 250 993 l 771 176 l 771 993 l 882 993 l 882 0 l 725 0 l 207 811 l 207 0 l 96 0 m 256 1104 b 386 1246 260 1182 299 1246 b 593 1165 482 1246 536 1165 b 649 1235 628 1165 650 1188 l 722 1224 b 590 1081 725 1144 676 1081 b 383 1161 494 1081 440 1161 b 329 1092 350 1161 331 1139 l 256 1104 "},"Ŋ":{"ha":978,"x_min":0,"x_max":0,"o":"m 718 -297 b 624 -278 676 -297 651 -289 l 608 -164 b 694 -187 636 -179 658 -187 b 757 -107 722 -187 757 -176 l 757 -35 l 215 788 l 215 0 l 96 0 l 96 993 l 238 993 l 764 197 l 764 993 l 882 993 l 882 -121 b 718 -297 882 -236 824 -297 "},"O":{"ha":1035,"x_min":0,"x_max":0,"o":"m 525 -19 b 47 496 229 -19 47 210 b 521 1013 47 781 226 1013 b 988 497 813 1013 988 781 b 525 -19 988 214 817 -19 m 193 496 b 525 86 193 269 322 86 b 843 497 725 86 843 275 b 521 907 843 719 722 907 b 193 496 318 907 193 719 "},"Ó":{"ha":1035,"x_min":0,"x_max":0,"o":"m 525 -19 b 47 496 229 -19 47 210 b 521 1013 47 781 226 1013 b 988 497 813 1013 988 781 b 525 -19 988 214 817 -19 m 193 496 b 525 86 193 269 322 86 b 843 497 725 86 843 275 b 521 907 843 719 722 907 b 193 496 318 907 193 719 m 596 1233 l 767 1233 l 539 1061 l 435 1061 "},"Ŏ":{"ha":1035,"x_min":0,"x_max":0,"o":"m 525 -19 b 47 496 229 -19 47 210 b 521 1013 47 781 226 1013 b 988 497 813 1013 988 781 b 525 -19 988 214 817 -19 m 193 496 b 525 86 193 269 322 86 b 843 497 725 86 843 275 b 521 907 843 719 722 907 b 193 496 318 907 193 719 m 419 1235 b 522 1142 422 1182 460 1142 b 622 1235 582 1142 621 1182 l 708 1235 b 522 1061 708 1131 632 1061 b 333 1235 411 1061 333 1131 "},"Ô":{"ha":1035,"x_min":0,"x_max":0,"o":"m 525 -19 b 47 496 229 -19 47 210 b 521 1013 47 781 226 1013 b 988 497 813 1013 988 781 b 525 -19 988 214 817 -19 m 193 496 b 525 86 193 269 322 86 b 843 497 725 86 843 275 b 521 907 843 719 722 907 b 193 496 318 907 193 719 m 465 1235 l 576 1235 l 767 1061 l 654 1061 l 519 1161 l 386 1061 l 274 1061 "},"Ö":{"ha":1035,"x_min":0,"x_max":0,"o":"m 525 -19 b 47 496 229 -19 47 210 b 521 1013 47 781 226 1013 b 988 497 813 1013 988 781 b 525 -19 988 214 817 -19 m 193 496 b 525 86 193 269 322 86 b 843 497 725 86 843 275 b 521 907 843 719 722 907 b 193 496 318 907 193 719 m 339 1229 l 467 1229 l 467 1101 l 339 1101 m 576 1229 l 703 1229 l 703 1101 l 576 1101 "},"Ọ":{"ha":1035,"x_min":0,"x_max":0,"o":"m 525 -19 b 47 496 229 -19 47 210 b 521 1013 47 781 226 1013 b 988 497 813 1013 988 781 b 525 -19 988 214 817 -19 m 193 496 b 525 86 193 269 322 86 b 843 497 725 86 843 275 b 521 907 843 719 722 907 b 193 496 318 907 193 719 m 451 -65 l 592 -65 l 592 -199 l 451 -199 "},"Ò":{"ha":1035,"x_min":0,"x_max":0,"o":"m 525 -19 b 47 496 229 -19 47 210 b 521 1013 47 781 226 1013 b 988 497 813 1013 988 781 b 525 -19 988 214 817 -19 m 193 496 b 525 86 193 269 322 86 b 843 497 725 86 843 275 b 521 907 843 719 722 907 b 193 496 318 907 193 719 m 446 1233 l 608 1061 l 504 1061 l 275 1233 "},"Ő":{"ha":1035,"x_min":0,"x_max":0,"o":"m 525 -19 b 47 496 229 -19 47 210 b 521 1013 47 781 226 1013 b 988 497 813 1013 988 781 b 525 -19 988 214 817 -19 m 193 496 b 525 86 193 269 322 86 b 843 497 725 86 843 275 b 521 907 843 719 722 907 b 193 496 318 907 193 719 m 475 1263 l 632 1263 l 413 1061 l 319 1061 m 715 1263 l 872 1263 l 653 1061 l 558 1061 "},"Ō":{"ha":1035,"x_min":0,"x_max":0,"o":"m 525 -19 b 47 496 229 -19 47 210 b 521 1013 47 781 226 1013 b 988 497 813 1013 988 781 b 525 -19 988 214 817 -19 m 193 496 b 525 86 193 269 322 86 b 843 497 725 86 843 275 b 521 907 843 719 722 907 b 193 496 318 907 193 719 m 315 1183 l 721 1183 l 721 1090 l 315 1090 "},"Ǫ":{"ha":1035,"x_min":0,"x_max":0,"o":"m 525 -19 b 47 496 229 -19 47 210 b 521 1013 47 781 226 1013 b 988 497 813 1013 988 781 b 658 -1 988 260 868 58 b 532 -161 574 -72 532 -115 b 588 -208 532 -190 553 -208 b 667 -179 621 -208 644 -197 l 688 -244 b 578 -274 657 -262 617 -274 b 447 -172 500 -274 447 -236 b 558 -18 447 -118 483 -72 b 525 -19 547 -19 536 -19 m 193 496 b 525 86 193 269 322 86 b 843 497 725 86 843 275 b 521 907 843 719 722 907 b 193 496 318 907 193 719 "},"Ø":{"ha":1035,"x_min":0,"x_max":0,"o":"m 525 -19 b 365 6 468 -19 414 -11 l 317 -111 l 222 -74 l 274 47 b 47 496 129 136 47 303 b 521 1013 47 781 226 1013 b 675 989 576 1013 628 1004 l 724 1103 l 814 1065 l 764 947 b 988 497 907 858 988 689 b 525 -19 988 214 817 -19 m 193 496 b 324 163 193 358 240 238 l 631 886 b 521 907 597 900 561 907 b 193 496 318 907 193 719 m 410 108 b 525 86 444 94 483 86 b 843 497 725 86 843 275 b 715 832 843 633 797 757 l 410 108 "},"Ǿ":{"ha":1035,"x_min":0,"x_max":0,"o":"m 525 -19 b 365 6 468 -19 414 -11 l 317 -111 l 222 -74 l 274 47 b 47 496 129 136 47 303 b 521 1013 47 781 226 1013 b 675 989 576 1013 628 1004 l 724 1103 l 814 1065 l 764 947 b 988 497 907 858 988 689 b 525 -19 988 214 817 -19 m 193 496 b 324 163 193 358 240 238 l 631 886 b 521 907 597 900 561 907 b 193 496 318 907 193 719 m 410 108 b 525 86 444 94 483 86 b 843 497 725 86 843 275 b 715 832 843 633 797 757 l 410 108 m 596 1233 l 767 1233 l 539 1061 l 435 1061 "},"Õ":{"ha":1035,"x_min":0,"x_max":0,"o":"m 525 -19 b 47 496 229 -19 47 210 b 521 1013 47 781 226 1013 b 988 497 813 1013 988 781 b 525 -19 988 214 817 -19 m 193 496 b 525 86 193 269 322 86 b 843 497 725 86 843 275 b 521 907 843 719 722 907 b 193 496 318 907 193 719 m 289 1104 b 419 1246 293 1182 332 1246 b 626 1165 515 1246 569 1165 b 682 1235 661 1165 683 1188 l 756 1224 b 624 1081 758 1144 710 1081 b 417 1161 528 1081 474 1161 b 363 1092 383 1161 364 1139 l 289 1104 "},"Œ":{"ha":1582,"x_min":0,"x_max":0,"o":"m 525 -19 b 47 496 229 -19 47 210 b 521 1013 47 781 226 1013 b 851 875 660 1013 772 960 l 851 993 l 1538 993 l 1538 886 l 988 886 l 988 568 l 1478 568 l 1478 463 l 988 463 l 988 107 l 1538 107 l 1538 0 l 851 0 l 851 117 b 525 -19 772 32 663 -19 m 193 496 b 525 86 193 269 322 86 b 843 497 725 86 843 275 b 521 907 843 719 722 907 b 193 496 318 907 193 719 "},"P":{"ha":838,"x_min":0,"x_max":0,"o":"m 96 993 l 478 993 b 818 717 676 993 818 879 b 475 435 818 550 671 435 l 232 435 l 232 181 b 239 0 232 119 233 61 l 96 0 m 457 540 b 672 717 582 540 672 613 b 460 886 672 818 582 886 l 232 886 l 232 540 "},"Þ":{"ha":854,"x_min":0,"x_max":0,"o":"m 96 993 l 232 993 l 232 776 l 478 776 b 818 499 676 776 818 663 b 475 218 818 333 671 218 l 232 218 l 232 0 l 96 0 m 457 325 b 672 499 582 325 672 396 b 460 668 672 601 582 668 l 232 668 l 232 325 "},"Q":{"ha":1035,"x_min":0,"x_max":0,"o":"m 525 -19 b 47 496 229 -19 47 210 b 521 1013 47 781 226 1013 b 988 497 813 1013 988 781 b 818 83 988 329 928 179 l 860 38 b 957 -49 882 13 908 -12 l 865 -135 l 722 22 b 525 -19 665 -4 599 -19 m 193 496 b 525 86 193 269 322 86 b 843 497 725 86 843 275 b 521 907 843 719 722 907 b 193 496 318 907 193 719 "},"R":{"ha":894,"x_min":0,"x_max":0,"o":"m 96 993 l 511 993 b 838 743 683 993 838 906 b 581 485 838 593 707 513 b 813 264 713 468 806 407 b 847 0 817 158 810 32 l 701 0 b 669 254 671 29 676 163 b 449 435 660 385 588 435 l 232 435 l 232 0 l 96 0 m 486 540 b 692 726 611 540 692 631 b 485 886 692 826 611 886 l 232 886 l 232 540 "},"Ŕ":{"ha":894,"x_min":0,"x_max":0,"o":"m 96 993 l 511 993 b 838 743 683 993 838 906 b 581 485 838 593 707 513 b 813 264 713 468 806 407 b 847 0 817 158 810 32 l 701 0 b 669 254 671 29 676 163 b 449 435 660 385 588 435 l 232 435 l 232 0 l 96 0 m 486 540 b 692 726 611 540 692 631 b 485 886 692 826 611 886 l 232 886 l 232 540 m 522 1233 l 693 1233 l 465 1061 l 361 1061 "},"Ř":{"ha":894,"x_min":0,"x_max":0,"o":"m 96 993 l 511 993 b 838 743 683 993 838 906 b 581 485 838 593 707 513 b 813 264 713 468 806 407 b 847 0 817 158 810 32 l 701 0 b 669 254 671 29 676 163 b 449 435 660 385 588 435 l 232 435 l 232 0 l 96 0 m 314 1235 l 449 1135 l 582 1235 l 694 1235 l 503 1061 l 392 1061 l 201 1235 m 486 540 b 692 726 611 540 692 631 b 485 886 692 826 611 886 l 232 886 l 232 540 "},"Ŗ":{"ha":894,"x_min":0,"x_max":0,"o":"m 96 993 l 511 993 b 838 743 683 993 838 906 b 581 485 838 593 707 513 b 813 264 713 468 806 407 b 847 0 817 158 810 32 l 701 0 b 669 254 671 29 676 163 b 449 435 660 385 588 435 l 232 435 l 232 0 l 96 0 m 486 540 b 692 726 611 540 692 631 b 485 886 692 826 611 886 l 232 886 l 232 540 m 415 -85 l 526 -85 b 488 -344 511 -153 497 -253 l 401 -344 "},"S":{"ha":840,"x_min":0,"x_max":0,"o":"m 454 -19 b 21 235 265 -19 118 68 l 135 328 b 458 86 196 154 333 86 b 657 251 565 86 657 146 b 72 758 657 494 72 417 b 383 1013 72 913 210 1013 b 783 792 543 1013 694 946 l 672 701 b 383 907 628 829 519 907 b 214 769 288 907 214 854 b 799 267 214 535 799 613 b 454 -19 799 76 633 -19 "},"Ś":{"ha":840,"x_min":0,"x_max":0,"o":"m 454 -19 b 21 235 265 -19 118 68 l 135 328 b 458 86 196 154 333 86 b 657 251 565 86 657 146 b 72 758 657 494 72 417 b 383 1013 72 913 210 1013 b 783 792 543 1013 694 946 l 672 701 b 383 907 628 829 519 907 b 214 769 288 907 214 854 b 799 267 214 535 799 613 b 454 -19 799 76 633 -19 m 507 1233 l 678 1233 l 450 1061 l 346 1061 "},"Š":{"ha":840,"x_min":0,"x_max":0,"o":"m 454 -19 b 21 235 265 -19 118 68 l 135 328 b 458 86 196 154 333 86 b 657 251 565 86 657 146 b 72 758 657 494 72 417 b 383 1013 72 913 210 1013 b 783 792 543 1013 694 946 l 672 701 b 383 907 628 829 519 907 b 214 769 288 907 214 854 b 799 267 214 535 799 613 b 454 -19 799 76 633 -19 m 299 1235 l 433 1135 l 567 1235 l 679 1235 l 488 1061 l 376 1061 l 186 1235 "},"Ş":{"ha":840,"x_min":0,"x_max":0,"o":"m 440 -281 b 310 -254 399 -281 349 -271 l 301 -172 b 440 -210 351 -197 392 -210 b 531 -168 476 -210 531 -206 b 376 -108 531 -139 488 -118 l 426 -19 b 21 235 250 -10 113 76 l 135 328 b 458 86 196 154 333 86 b 657 251 565 86 657 146 b 72 758 657 494 72 417 b 383 1013 72 913 210 1013 b 783 792 543 1013 694 946 l 672 701 b 383 907 628 829 519 907 b 214 769 288 907 214 854 b 799 267 214 535 799 613 b 522 -15 799 100 672 7 l 490 -68 b 624 -168 571 -78 624 -114 b 440 -281 624 -239 546 -281 "},"Ŝ":{"ha":840,"x_min":0,"x_max":0,"o":"m 454 -19 b 21 235 265 -19 118 68 l 135 328 b 458 86 196 154 333 86 b 657 251 565 86 657 146 b 72 758 657 494 72 417 b 383 1013 72 913 210 1013 b 783 792 543 1013 694 946 l 672 701 b 383 907 628 829 519 907 b 214 769 288 907 214 854 b 799 267 214 535 799 613 b 454 -19 799 76 633 -19 m 376 1235 l 488 1235 l 678 1061 l 565 1061 l 431 1161 l 297 1061 l 185 1061 "},"Ș":{"ha":840,"x_min":0,"x_max":0,"o":"m 454 -19 b 21 235 265 -19 118 68 l 135 328 b 458 86 196 154 333 86 b 657 251 565 86 657 146 b 72 758 657 494 72 417 b 383 1013 72 913 210 1013 b 783 792 543 1013 694 946 l 672 701 b 383 907 628 829 519 907 b 214 769 288 907 214 854 b 799 267 214 535 799 613 b 454 -19 799 76 633 -19 m 397 -85 l 508 -85 b 469 -344 493 -153 479 -253 l 383 -344 "},"ẞ":{"ha":932,"x_min":0,"x_max":0,"o":"m 83 0 b 90 181 89 61 90 121 l 90 703 b 436 1013 90 883 199 1013 b 842 856 592 1013 738 954 b 569 571 715 760 632 694 b 900 281 726 554 900 478 b 563 -19 900 104 761 -19 b 285 97 429 -19 338 35 l 357 204 b 563 86 406 129 467 86 b 754 274 683 86 754 169 b 426 482 754 419 631 489 b 667 829 458 617 550 736 b 436 907 601 883 519 907 b 226 697 276 907 226 818 l 226 0 l 83 0 "},"Ə":{"ha":1003,"x_min":0,"x_max":0,"o":"m 499 1013 b 956 519 735 1013 956 867 b 483 -19 956 203 761 -19 b 51 500 218 -19 51 179 l 815 500 l 815 513 b 499 900 815 803 656 900 b 142 646 317 900 186 785 l 38 740 b 499 1013 140 911 299 1013 m 189 403 b 483 92 201 225 313 92 b 807 403 650 92 774 207 l 189 403 "},"T":{"ha":831,"x_min":0,"x_max":0,"o":"m 347 886 l 11 886 l 11 993 l 818 993 l 818 886 l 483 886 l 483 0 l 347 0 "},"Ŧ":{"ha":831,"x_min":0,"x_max":0,"o":"m 347 499 l 210 499 l 210 592 l 347 592 l 347 886 l 11 886 l 11 993 l 818 993 l 818 886 l 483 886 l 483 592 l 615 592 l 615 499 l 483 499 l 483 0 l 347 0 "},"Ť":{"ha":831,"x_min":0,"x_max":0,"o":"m 347 886 l 11 886 l 11 993 l 818 993 l 818 886 l 483 886 l 483 0 l 347 0 m 282 1235 l 417 1135 l 550 1235 l 663 1235 l 471 1061 l 360 1061 l 169 1235 "},"Ţ":{"ha":831,"x_min":0,"x_max":0,"o":"m 347 886 l 11 886 l 11 993 l 818 993 l 818 886 l 483 886 l 483 0 l 501 0 l 461 -68 b 594 -168 542 -78 594 -114 b 411 -281 594 -239 517 -281 b 281 -254 369 -281 319 -271 l 272 -172 b 411 -210 322 -197 363 -210 b 501 -168 447 -210 501 -206 b 347 -108 501 -139 458 -118 l 407 0 l 347 0 "},"Ț":{"ha":831,"x_min":0,"x_max":0,"o":"m 347 886 l 11 886 l 11 993 l 818 993 l 818 886 l 483 886 l 483 0 l 347 0 m 367 -85 l 478 -85 b 439 -344 463 -153 449 -253 l 353 -344 "},"U":{"ha":969,"x_min":0,"x_max":0,"o":"m 486 -19 b 88 335 249 -19 88 119 l 88 993 l 224 993 l 224 333 b 496 85 224 175 332 85 b 768 332 663 85 768 174 l 768 993 l 879 993 l 879 332 b 486 -19 879 111 722 -19 "},"Ú":{"ha":969,"x_min":0,"x_max":0,"o":"m 486 -19 b 88 335 249 -19 88 119 l 88 993 l 224 993 l 224 333 b 496 85 224 175 332 85 b 768 332 663 85 768 174 l 768 993 l 879 993 l 879 332 b 486 -19 879 111 722 -19 m 569 1233 l 740 1233 l 513 1061 l 408 1061 "},"Ŭ":{"ha":969,"x_min":0,"x_max":0,"o":"m 486 -19 b 88 335 249 -19 88 119 l 88 993 l 224 993 l 224 333 b 496 85 224 175 332 85 b 768 332 663 85 768 174 l 768 993 l 879 993 l 879 332 b 486 -19 879 111 722 -19 m 393 1235 b 496 1142 396 1182 433 1142 b 596 1235 556 1142 594 1182 l 682 1235 b 496 1061 682 1131 606 1061 b 307 1235 385 1061 307 1131 "},"Û":{"ha":969,"x_min":0,"x_max":0,"o":"m 486 -19 b 88 335 249 -19 88 119 l 88 993 l 224 993 l 224 333 b 496 85 224 175 332 85 b 768 332 663 85 768 174 l 768 993 l 879 993 l 879 332 b 486 -19 879 111 722 -19 m 439 1235 l 550 1235 l 740 1061 l 628 1061 l 493 1161 l 360 1061 l 247 1061 "},"Ü":{"ha":969,"x_min":0,"x_max":0,"o":"m 486 -19 b 88 335 249 -19 88 119 l 88 993 l 224 993 l 224 333 b 496 85 224 175 332 85 b 768 332 663 85 768 174 l 768 993 l 879 993 l 879 332 b 486 -19 879 111 722 -19 m 313 1229 l 440 1229 l 440 1101 l 313 1101 m 550 1229 l 676 1229 l 676 1101 l 550 1101 "},"Ụ":{"ha":969,"x_min":0,"x_max":0,"o":"m 486 -19 b 88 335 249 -19 88 119 l 88 993 l 224 993 l 224 333 b 496 85 224 175 332 85 b 768 332 663 85 768 174 l 768 993 l 879 993 l 879 332 b 486 -19 879 111 722 -19 m 415 -65 l 556 -65 l 556 -199 l 415 -199 "},"Ù":{"ha":969,"x_min":0,"x_max":0,"o":"m 486 -19 b 88 335 249 -19 88 119 l 88 993 l 224 993 l 224 333 b 496 85 224 175 332 85 b 768 332 663 85 768 174 l 768 993 l 879 993 l 879 332 b 486 -19 879 111 722 -19 m 419 1233 l 582 1061 l 478 1061 l 249 1233 "},"Ű":{"ha":969,"x_min":0,"x_max":0,"o":"m 486 -19 b 88 335 249 -19 88 119 l 88 993 l 224 993 l 224 333 b 496 85 224 175 332 85 b 768 332 663 85 768 174 l 768 993 l 879 993 l 879 332 b 486 -19 879 111 722 -19 m 449 1263 l 606 1263 l 386 1061 l 293 1061 m 689 1263 l 846 1263 l 626 1061 l 532 1061 "},"Ū":{"ha":969,"x_min":0,"x_max":0,"o":"m 486 -19 b 88 335 249 -19 88 119 l 88 993 l 224 993 l 224 333 b 496 85 224 175 332 85 b 768 332 663 85 768 174 l 768 993 l 879 993 l 879 332 b 486 -19 879 111 722 -19 m 290 1183 l 696 1183 l 696 1090 l 290 1090 "},"Ų":{"ha":969,"x_min":0,"x_max":0,"o":"m 486 -19 b 88 335 249 -19 88 119 l 88 993 l 224 993 l 224 333 b 496 85 224 175 332 85 b 768 332 663 85 768 174 l 768 993 l 879 993 l 879 332 b 632 0 879 160 785 43 b 504 -161 546 -71 504 -115 b 560 -208 504 -190 525 -208 b 639 -179 593 -208 617 -197 l 660 -244 b 550 -274 629 -262 589 -274 b 419 -172 472 -274 419 -236 b 532 -18 419 -118 456 -71 b 486 -19 517 -19 501 -19 "},"Ů":{"ha":969,"x_min":0,"x_max":0,"o":"m 486 -19 b 88 335 249 -19 88 119 l 88 993 l 224 993 l 224 333 b 496 85 224 175 332 85 b 768 332 663 85 768 174 l 768 993 l 879 993 l 879 332 b 486 -19 879 111 722 -19 m 338 1181 b 494 1300 338 1250 401 1300 b 650 1181 586 1300 650 1250 b 494 1061 650 1110 586 1061 b 338 1181 401 1061 338 1110 m 415 1182 b 494 1119 415 1144 446 1119 b 574 1182 542 1119 574 1144 b 494 1240 574 1217 542 1240 b 415 1182 446 1240 415 1217 "},"Ũ":{"ha":969,"x_min":0,"x_max":0,"o":"m 486 -19 b 88 335 249 -19 88 119 l 88 993 l 224 993 l 224 333 b 496 85 224 175 332 85 b 768 332 663 85 768 174 l 768 993 l 879 993 l 879 332 b 486 -19 879 111 722 -19 m 263 1104 b 393 1246 267 1182 306 1246 b 600 1165 489 1246 543 1165 b 656 1235 635 1165 657 1188 l 729 1224 b 597 1081 732 1144 683 1081 b 390 1161 501 1081 447 1161 b 336 1092 357 1161 338 1139 l 263 1104 "},"V":{"ha":874,"x_min":0,"x_max":0,"o":"m 6 993 l 151 993 l 400 313 b 446 156 431 229 446 156 b 504 313 446 156 475 228 l 690 833 b 733 993 707 881 724 932 l 867 993 l 507 0 l 369 0 "},"W":{"ha":1286,"x_min":0,"x_max":0,"o":"m 11 993 l 156 993 l 333 336 b 365 176 357 250 365 176 b 413 336 365 176 390 250 l 585 993 l 726 993 l 911 333 b 944 174 935 247 944 174 b 989 333 944 174 968 247 l 1108 814 b 1139 993 1125 883 1133 933 l 1267 993 l 1014 0 l 861 0 l 686 646 b 654 807 663 732 654 807 b 607 647 654 807 629 732 l 436 0 l 283 0 "},"Ẃ":{"ha":1286,"x_min":0,"x_max":0,"o":"m 11 993 l 156 993 l 333 336 b 365 176 357 250 365 176 b 413 336 365 176 390 250 l 585 993 l 726 993 l 911 333 b 944 174 935 247 944 174 b 989 333 944 174 968 247 l 1108 814 b 1139 993 1125 883 1133 933 l 1267 993 l 1014 0 l 861 0 l 686 646 b 654 807 663 732 654 807 b 607 647 654 807 629 732 l 436 0 l 283 0 m 732 1233 l 903 1233 l 675 1061 l 571 1061 "},"Ŵ":{"ha":1286,"x_min":0,"x_max":0,"o":"m 11 993 l 156 993 l 333 336 b 365 176 357 250 365 176 b 413 336 365 176 390 250 l 585 993 l 726 993 l 911 333 b 944 174 935 247 944 174 b 989 333 944 174 968 247 l 1108 814 b 1139 993 1125 883 1133 933 l 1267 993 l 1014 0 l 861 0 l 686 646 b 654 807 663 732 654 807 b 607 647 654 807 629 732 l 436 0 l 283 0 m 601 1235 l 713 1235 l 903 1061 l 790 1061 l 656 1161 l 522 1061 l 410 1061 "},"Ẅ":{"ha":1286,"x_min":0,"x_max":0,"o":"m 11 993 l 156 993 l 333 336 b 365 176 357 250 365 176 b 413 336 365 176 390 250 l 585 993 l 726 993 l 911 333 b 944 174 935 247 944 174 b 989 333 944 174 968 247 l 1108 814 b 1139 993 1125 883 1133 933 l 1267 993 l 1014 0 l 861 0 l 686 646 b 654 807 663 732 654 807 b 607 647 654 807 629 732 l 436 0 l 283 0 m 475 1229 l 603 1229 l 603 1101 l 475 1101 m 713 1229 l 839 1229 l 839 1101 l 713 1101 "},"Ẁ":{"ha":1286,"x_min":0,"x_max":0,"o":"m 11 993 l 156 993 l 333 336 b 365 176 357 250 365 176 b 413 336 365 176 390 250 l 585 993 l 726 993 l 911 333 b 944 174 935 247 944 174 b 989 333 944 174 968 247 l 1108 814 b 1139 993 1125 883 1133 933 l 1267 993 l 1014 0 l 861 0 l 686 646 b 654 807 663 732 654 807 b 607 647 654 807 629 732 l 436 0 l 283 0 m 583 1233 l 744 1061 l 640 1061 l 413 1233 "},"X":{"ha":842,"x_min":0,"x_max":0,"o":"m 347 499 l 10 993 l 169 993 l 429 614 l 615 872 b 681 993 643 913 661 944 l 832 993 l 493 519 l 846 0 l 686 0 l 410 404 l 214 121 b 144 0 186 82 167 50 l -4 0 "},"Y":{"ha":833,"x_min":0,"x_max":0,"o":"m 10 993 l 161 993 l 354 660 b 426 514 399 583 426 514 b 508 660 426 514 464 582 l 621 853 b 679 993 650 906 664 938 l 819 993 l 486 410 l 486 0 l 350 0 l 350 410 "},"Ý":{"ha":833,"x_min":0,"x_max":0,"o":"m 10 993 l 161 993 l 354 660 b 426 514 399 583 426 514 b 508 660 426 514 464 582 l 621 853 b 679 993 650 906 664 938 l 819 993 l 486 410 l 486 0 l 350 0 l 350 410 m 497 1233 l 668 1233 l 440 1061 l 336 1061 "},"Ŷ":{"ha":833,"x_min":0,"x_max":0,"o":"m 10 993 l 161 993 l 354 660 b 426 514 399 583 426 514 b 508 660 426 514 464 582 l 621 853 b 679 993 650 906 664 938 l 819 993 l 486 410 l 486 0 l 350 0 l 350 410 m 367 1235 l 478 1235 l 668 1061 l 556 1061 l 421 1161 l 288 1061 l 175 1061 "},"Ÿ":{"ha":833,"x_min":0,"x_max":0,"o":"m 10 993 l 161 993 l 354 660 b 426 514 399 583 426 514 b 508 660 426 514 464 582 l 621 853 b 679 993 650 906 664 938 l 819 993 l 486 410 l 486 0 l 350 0 l 350 410 m 240 1229 l 368 1229 l 368 1101 l 240 1101 m 478 1229 l 604 1229 l 604 1101 l 478 1101 "},"Ỳ":{"ha":833,"x_min":0,"x_max":0,"o":"m 10 993 l 161 993 l 354 660 b 426 514 399 583 426 514 b 508 660 426 514 464 582 l 621 853 b 679 993 650 906 664 938 l 819 993 l 486 410 l 486 0 l 350 0 l 350 410 m 347 1233 l 508 1061 l 404 1061 l 176 1233 "},"Ȳ":{"ha":833,"x_min":0,"x_max":0,"o":"m 10 993 l 161 993 l 354 660 b 426 514 399 583 426 514 b 508 660 426 514 464 582 l 621 853 b 679 993 650 906 664 938 l 819 993 l 486 410 l 486 0 l 350 0 l 350 410 m 217 1183 l 622 1183 l 622 1090 l 217 1090 "},"Ỹ":{"ha":833,"x_min":0,"x_max":0,"o":"m 10 993 l 161 993 l 354 660 b 426 514 399 583 426 514 b 508 660 426 514 464 582 l 621 853 b 679 993 650 906 664 938 l 819 993 l 486 410 l 486 0 l 350 0 l 350 410 m 190 1104 b 321 1246 194 1182 233 1246 b 528 1165 417 1246 471 1165 b 583 1235 563 1165 585 1188 l 657 1224 b 525 1081 660 1144 611 1081 b 318 1161 429 1081 375 1161 b 264 1092 285 1161 265 1139 l 190 1104 "},"Z":{"ha":786,"x_min":0,"x_max":0,"o":"m 32 90 l 586 886 l 32 886 l 32 993 l 754 993 l 754 903 l 201 107 l 754 107 l 754 0 l 32 0 "},"Ź":{"ha":786,"x_min":0,"x_max":0,"o":"m 32 90 l 586 886 l 32 886 l 32 993 l 754 993 l 754 903 l 201 107 l 754 107 l 754 0 l 32 0 m 469 1233 l 640 1233 l 413 1061 l 308 1061 "},"Ž":{"ha":786,"x_min":0,"x_max":0,"o":"m 32 90 l 586 886 l 32 886 l 32 993 l 754 993 l 754 903 l 201 107 l 754 107 l 754 0 l 32 0 m 261 1235 l 396 1135 l 529 1235 l 642 1235 l 450 1061 l 339 1061 l 149 1235 "},"Ż":{"ha":786,"x_min":0,"x_max":0,"o":"m 32 90 l 586 886 l 32 886 l 32 993 l 754 993 l 754 903 l 201 107 l 754 107 l 754 0 l 32 0 m 324 1233 l 464 1233 l 464 1100 l 324 1100 "},"a":{"ha":769,"x_min":0,"x_max":0,"o":"m 661 -19 b 542 113 588 -19 542 29 l 542 175 b 261 -19 493 61 392 -19 b 39 181 125 -19 39 61 b 542 492 39 371 246 463 l 542 515 b 399 678 542 610 499 678 b 138 500 292 678 196 619 l 44 576 b 407 775 135 713 267 775 b 667 521 590 775 667 669 l 667 119 b 704 74 667 88 678 74 b 757 89 722 74 736 78 l 742 0 b 661 -19 718 -11 692 -19 m 172 196 b 293 83 172 126 219 83 b 542 349 411 83 542 183 l 542 397 b 172 196 331 376 172 326 "},"á":{"ha":769,"x_min":0,"x_max":0,"o":"m 661 -19 b 542 113 588 -19 542 29 l 542 175 b 261 -19 493 61 392 -19 b 39 181 125 -19 39 61 b 542 492 39 371 246 463 l 542 515 b 399 678 542 610 499 678 b 138 500 292 678 196 619 l 44 576 b 407 775 135 713 267 775 b 667 521 590 775 667 669 l 667 119 b 704 74 667 88 678 74 b 757 89 722 74 736 78 l 742 0 b 661 -19 718 -11 692 -19 m 172 196 b 293 83 172 126 219 83 b 542 349 411 83 542 183 l 542 397 b 172 196 331 376 172 326 m 463 1029 l 633 1029 l 399 824 l 301 824 "},"ă":{"ha":768,"x_min":0,"x_max":0,"o":"m 661 -19 b 542 113 588 -19 542 29 l 542 175 b 261 -19 493 61 392 -19 b 39 181 125 -19 39 61 b 542 492 39 371 246 463 l 542 515 b 399 678 542 610 499 678 b 138 500 292 678 196 619 l 44 576 b 407 775 135 713 267 775 b 667 521 590 775 667 669 l 667 119 b 704 74 667 88 678 74 b 757 89 722 74 736 78 l 742 0 b 661 -19 718 -11 692 -19 m 172 196 b 293 83 172 126 219 83 b 542 349 411 83 542 183 l 542 397 b 172 196 331 376 172 326 m 278 1029 b 379 908 281 971 303 908 b 482 1029 458 908 481 971 l 568 1029 b 379 824 571 911 504 824 b 192 1029 256 824 188 911 "},"â":{"ha":769,"x_min":0,"x_max":0,"o":"m 661 -19 b 542 113 588 -19 542 29 l 542 175 b 261 -19 493 61 392 -19 b 39 181 125 -19 39 61 b 542 492 39 371 246 463 l 542 515 b 399 678 542 610 499 678 b 138 500 292 678 196 619 l 44 576 b 407 775 135 713 267 775 b 667 521 590 775 667 669 l 667 119 b 704 74 667 88 678 74 b 757 89 722 74 736 78 l 742 0 b 661 -19 718 -11 692 -19 m 331 1029 l 440 1029 l 625 824 l 521 824 l 385 944 l 250 824 l 144 824 m 172 196 b 293 83 172 126 219 83 b 542 349 411 83 542 183 l 542 397 b 172 196 331 376 172 326 "},"ä":{"ha":769,"x_min":0,"x_max":0,"o":"m 661 -19 b 542 113 588 -19 542 29 l 542 175 b 261 -19 493 61 392 -19 b 39 181 125 -19 39 61 b 542 492 39 371 246 463 l 542 515 b 399 678 542 610 499 678 b 138 500 292 678 196 619 l 44 576 b 407 775 135 713 267 775 b 667 521 590 775 667 669 l 667 119 b 704 74 667 88 678 74 b 757 89 722 74 736 78 l 742 0 b 661 -19 718 -11 692 -19 m 172 196 b 293 83 172 126 219 83 b 542 349 411 83 542 183 l 542 397 b 172 196 331 376 172 326 m 200 1001 l 328 1001 l 328 874 l 200 874 m 438 1001 l 564 1001 l 564 874 l 438 874 "},"ạ":{"ha":768,"x_min":0,"x_max":0,"o":"m 661 -19 b 542 113 588 -19 542 29 l 542 175 b 261 -19 493 61 392 -19 b 39 181 125 -19 39 61 b 542 492 39 371 246 463 l 542 515 b 399 678 542 610 499 678 b 138 500 292 678 196 619 l 44 576 b 407 775 135 713 267 775 b 667 521 590 775 667 669 l 667 119 b 704 74 667 88 678 74 b 757 89 722 74 736 78 l 742 0 b 661 -19 718 -11 692 -19 m 172 196 b 293 83 172 126 219 83 b 542 349 411 83 542 183 l 542 397 b 172 196 331 376 172 326 m 310 -89 l 450 -89 l 450 -222 l 310 -222 "},"à":{"ha":768,"x_min":0,"x_max":0,"o":"m 661 -19 b 542 113 588 -19 542 29 l 542 175 b 261 -19 493 61 392 -19 b 39 181 125 -19 39 61 b 542 492 39 371 246 463 l 542 515 b 399 678 542 610 499 678 b 138 500 292 678 196 619 l 44 576 b 407 775 135 713 267 775 b 667 521 590 775 667 669 l 667 119 b 704 74 667 88 678 74 b 757 89 722 74 736 78 l 742 0 b 661 -19 718 -11 692 -19 m 299 1029 l 460 824 l 363 824 l 128 1029 m 172 196 b 293 83 172 126 219 83 b 542 349 411 83 542 183 l 542 397 b 172 196 331 376 172 326 "},"ā":{"ha":768,"x_min":0,"x_max":0,"o":"m 661 -19 b 542 113 588 -19 542 29 l 542 175 b 261 -19 493 61 392 -19 b 39 181 125 -19 39 61 b 542 492 39 371 246 463 l 542 515 b 399 678 542 610 499 678 b 138 500 292 678 196 619 l 44 576 b 407 775 135 713 267 775 b 667 521 590 775 667 669 l 667 119 b 704 74 667 88 678 74 b 757 89 722 74 736 78 l 742 0 b 661 -19 718 -11 692 -19 m 172 196 b 293 83 172 126 219 83 b 542 349 411 83 542 183 l 542 397 b 172 196 331 376 172 326 m 176 953 l 582 953 l 582 860 l 176 860 "},"ą":{"ha":768,"x_min":0,"x_max":0,"o":"m 261 -19 b 39 181 125 -19 39 61 b 542 492 39 371 246 463 l 542 515 b 399 678 542 610 499 678 b 138 500 292 678 196 619 l 44 576 b 407 775 135 713 267 775 b 667 521 590 775 667 669 l 667 119 b 704 74 667 88 678 74 b 757 89 722 74 736 78 l 742 0 b 614 -161 656 -71 614 -115 b 669 -208 614 -190 635 -208 b 749 -179 703 -208 726 -197 l 769 -244 b 660 -274 739 -262 699 -274 b 529 -172 582 -274 529 -236 b 642 -18 529 -118 565 -72 b 542 113 579 -10 542 38 l 542 175 b 261 -19 493 61 392 -19 m 172 196 b 293 83 172 126 219 83 b 542 349 411 83 542 183 l 542 397 b 172 196 331 376 172 326 "},"å":{"ha":768,"x_min":0,"x_max":0,"o":"m 661 -19 b 542 113 588 -19 542 29 l 542 175 b 261 -19 493 61 392 -19 b 39 181 125 -19 39 61 b 542 492 39 371 246 463 l 542 515 b 399 678 542 610 499 678 b 138 500 292 678 196 619 l 44 576 b 407 775 135 713 267 775 b 667 521 590 775 667 669 l 667 119 b 704 74 667 88 678 74 b 757 89 722 74 736 78 l 742 0 b 661 -19 718 -11 692 -19 m 172 196 b 293 83 172 126 219 83 b 542 349 411 83 542 183 l 542 397 b 172 196 331 376 172 326 m 224 961 b 381 1092 224 1038 289 1092 b 538 961 472 1092 538 1038 b 381 828 538 882 472 828 b 224 961 289 828 224 882 m 301 961 b 381 886 301 918 332 886 b 461 961 429 886 461 918 b 381 1033 461 1003 429 1033 b 301 961 332 1033 301 1003 "},"ǻ":{"ha":768,"x_min":0,"x_max":0,"o":"m 661 -19 b 542 113 588 -19 542 29 l 542 175 b 261 -19 493 61 392 -19 b 39 181 125 -19 39 61 b 542 492 39 371 246 463 l 542 515 b 399 678 542 610 499 678 b 138 500 292 678 196 619 l 44 576 b 407 775 135 713 267 775 b 667 521 590 775 667 669 l 667 119 b 704 74 667 88 678 74 b 757 89 722 74 736 78 l 742 0 b 661 -19 718 -11 692 -19 m 172 196 b 293 83 172 126 219 83 b 542 349 411 83 542 183 l 542 397 b 172 196 331 376 172 326 m 224 961 b 367 1092 224 1033 282 1086 l 494 1254 l 665 1254 l 461 1075 b 538 961 508 1054 538 1013 b 381 828 538 882 472 828 b 224 961 289 828 224 882 m 301 961 b 381 886 301 918 332 886 b 461 961 429 886 461 918 b 381 1033 461 1003 429 1033 b 301 961 332 1033 301 1003 "},"ã":{"ha":768,"x_min":0,"x_max":0,"o":"m 661 -19 b 542 113 588 -19 542 29 l 542 175 b 261 -19 493 61 392 -19 b 39 181 125 -19 39 61 b 542 492 39 371 246 463 l 542 515 b 399 678 542 610 499 678 b 138 500 292 678 196 619 l 44 576 b 407 775 135 713 267 775 b 667 521 590 775 667 669 l 667 119 b 704 74 667 88 678 74 b 757 89 722 74 736 78 l 742 0 b 661 -19 718 -11 692 -19 m 150 865 b 281 1007 154 943 193 1007 b 488 926 376 1007 431 926 b 543 996 522 926 544 949 l 617 985 b 485 842 619 906 571 842 b 278 922 389 842 335 922 b 224 853 244 922 225 900 l 150 865 m 172 196 b 293 83 172 126 219 83 b 542 349 411 83 542 183 l 542 397 b 172 196 331 376 172 326 "},"æ":{"ha":1264,"x_min":0,"x_max":0,"o":"m 894 -19 b 581 175 761 -19 639 47 b 268 -19 526 60 413 -19 b 39 179 131 -19 39 60 b 542 492 39 369 244 463 l 542 515 b 399 678 542 610 499 678 b 138 500 290 678 197 619 l 44 576 b 407 775 133 711 267 775 b 639 656 529 775 603 729 b 893 775 701 731 789 775 b 1217 357 1108 775 1218 604 l 672 357 b 894 78 675 167 782 78 b 1126 260 1014 78 1096 163 l 1229 188 b 894 -19 1150 53 1033 -19 m 172 194 b 293 83 172 126 219 83 b 542 353 419 83 542 189 l 542 397 b 172 194 331 376 172 326 m 1090 453 b 894 678 1079 581 1011 678 b 679 453 782 678 703 593 "},"ǽ":{"ha":1264,"x_min":0,"x_max":0,"o":"m 894 -19 b 581 175 761 -19 639 47 b 268 -19 526 60 413 -19 b 39 179 131 -19 39 60 b 542 492 39 369 244 463 l 542 515 b 399 678 542 610 499 678 b 138 500 290 678 197 619 l 44 576 b 407 775 133 711 267 775 b 639 656 529 775 603 729 b 893 775 701 731 789 775 b 1217 357 1108 775 1218 604 l 672 357 b 894 78 675 167 782 78 b 1126 260 1014 78 1096 163 l 1229 188 b 894 -19 1150 53 1033 -19 m 172 194 b 293 83 172 126 219 83 b 542 353 419 83 542 189 l 542 397 b 172 194 331 376 172 326 m 721 1029 l 892 1029 l 657 824 l 560 824 m 1090 453 b 894 678 1079 581 1011 678 b 679 453 782 678 703 593 "},"b":{"ha":828,"x_min":0,"x_max":0,"o":"m 458 -19 b 210 154 350 -19 257 50 l 210 0 l 85 0 l 85 993 l 210 993 l 210 599 b 460 775 257 706 350 775 b 786 378 654 775 786 614 b 458 -19 786 143 651 -19 m 210 339 b 431 85 210 197 308 85 b 653 378 561 85 653 204 b 431 671 653 551 561 671 b 210 414 307 671 210 556 l 210 339 "},"c":{"ha":747,"x_min":0,"x_max":0,"o":"m 399 -19 b 42 374 189 -19 42 143 b 401 775 42 610 190 775 b 711 544 558 775 668 690 l 606 478 b 400 678 579 600 513 678 b 175 374 268 678 175 553 b 400 78 175 199 267 78 b 617 271 518 78 592 169 l 724 201 b 399 -19 657 78 560 -19 "},"ć":{"ha":747,"x_min":0,"x_max":0,"o":"m 399 -19 b 42 374 189 -19 42 143 b 401 775 42 610 190 775 b 711 544 558 775 668 690 l 606 478 b 400 678 579 600 513 678 b 175 374 268 678 175 553 b 400 78 175 199 267 78 b 617 271 518 78 592 169 l 724 201 b 399 -19 657 78 560 -19 m 481 1029 l 651 1029 l 417 824 l 319 824 "},"č":{"ha":747,"x_min":0,"x_max":0,"o":"m 399 -19 b 42 374 189 -19 42 143 b 401 775 42 610 190 775 b 711 544 558 775 668 690 l 606 478 b 400 678 579 600 513 678 b 175 374 268 678 175 553 b 400 78 175 199 267 78 b 617 271 518 78 592 169 l 724 201 b 399 -19 657 78 560 -19 m 265 1029 l 401 908 l 536 1029 l 642 1029 l 456 824 l 346 824 l 161 1029 "},"ç":{"ha":747,"x_min":0,"x_max":0,"o":"m 393 -281 b 263 -254 351 -281 301 -271 l 254 -172 b 393 -210 304 -197 344 -210 b 483 -168 429 -210 483 -206 b 329 -108 483 -139 440 -118 l 378 -19 b 42 374 179 -8 42 150 b 401 775 42 610 190 775 b 711 544 558 775 668 690 l 606 478 b 400 678 579 600 513 678 b 175 374 268 678 175 553 b 400 78 175 199 267 78 b 617 271 518 78 592 169 l 724 201 b 476 -11 668 99 593 15 l 443 -68 b 576 -168 524 -78 576 -114 b 393 -281 576 -239 499 -281 "},"ĉ":{"ha":747,"x_min":0,"x_max":0,"o":"m 399 -19 b 42 374 189 -19 42 143 b 401 775 42 610 190 775 b 711 544 558 775 668 690 l 606 478 b 400 678 579 600 513 678 b 175 374 268 678 175 553 b 400 78 175 199 267 78 b 617 271 518 78 592 169 l 724 201 b 399 -19 657 78 560 -19 m 350 1029 l 460 1029 l 644 824 l 540 824 l 404 944 l 269 824 l 164 824 "},"ċ":{"ha":747,"x_min":0,"x_max":0,"o":"m 399 -19 b 42 374 189 -19 42 143 b 401 775 42 610 190 775 b 711 544 558 775 668 690 l 606 478 b 400 678 579 600 513 678 b 175 374 268 678 175 553 b 400 78 175 199 267 78 b 617 271 518 78 592 169 l 724 201 b 399 -19 657 78 560 -19 m 329 1004 l 469 1004 l 469 871 l 329 871 "},"d":{"ha":829,"x_min":0,"x_max":0,"o":"m 368 -19 b 42 378 174 -19 42 142 b 369 775 42 613 176 775 b 619 601 478 775 571 706 l 619 993 l 744 993 l 744 181 b 751 0 744 121 746 61 l 619 0 l 619 157 b 368 -19 571 50 478 -19 m 175 378 b 399 85 175 204 267 85 b 619 342 522 85 619 200 l 619 417 b 399 671 619 558 519 671 b 175 378 267 671 175 551 "},"ð":{"ha":790,"x_min":0,"x_max":0,"o":"m 394 -19 b 42 360 188 -19 42 138 b 378 743 42 585 179 743 b 572 650 457 743 524 708 b 422 850 540 729 492 794 l 274 796 l 246 865 l 344 901 b 186 972 299 928 246 951 l 226 1040 b 453 942 313 1015 388 983 l 592 993 l 619 922 l 528 889 b 746 376 671 769 746 599 b 394 -19 746 143 600 -19 m 175 360 b 394 78 175 193 265 78 b 619 361 526 78 619 194 b 401 646 619 521 533 646 b 175 360 268 646 175 529 "},"ď":{"ha":900,"x_min":0,"x_max":0,"o":"m 368 -19 b 42 378 174 -19 42 142 b 369 775 42 613 176 775 b 619 601 478 775 571 706 l 619 993 l 744 993 l 744 181 b 751 0 744 121 746 61 l 619 0 l 619 157 b 368 -19 571 50 478 -19 m 175 378 b 399 85 175 204 267 85 b 619 342 522 85 619 200 l 619 417 b 399 671 619 558 519 671 b 175 378 267 671 175 551 m 828 993 l 939 993 b 900 733 924 925 910 825 l 814 733 "},"đ":{"ha":829,"x_min":0,"x_max":0,"o":"m 368 -19 b 42 378 174 -19 42 142 b 369 775 42 613 176 775 b 619 601 478 775 571 706 l 619 833 l 443 833 l 443 926 l 619 926 l 619 993 l 744 993 l 744 926 l 849 926 l 849 833 l 744 833 l 744 181 b 751 0 744 121 746 61 l 619 0 l 619 157 b 368 -19 571 50 478 -19 m 175 378 b 399 85 175 204 267 85 b 619 342 522 85 619 200 l 619 417 b 399 671 619 558 519 671 b 175 378 267 671 175 551 "},"e":{"ha":763,"x_min":0,"x_max":0,"o":"m 394 -19 b 42 361 206 -19 42 110 b 394 775 42 607 189 775 b 718 357 606 775 718 610 l 172 357 b 394 78 175 176 274 78 b 626 260 514 78 597 163 l 728 188 b 394 -19 649 53 533 -19 m 589 454 b 394 678 578 583 510 678 b 179 454 282 678 203 593 "},"é":{"ha":761,"x_min":0,"x_max":0,"o":"m 394 -19 b 42 361 206 -19 42 110 b 394 775 42 607 189 775 b 718 357 606 775 718 610 l 172 357 b 394 78 175 176 274 78 b 626 260 514 78 597 163 l 728 188 b 394 -19 649 53 533 -19 m 589 454 b 394 678 578 583 510 678 b 179 454 282 678 203 593 m 474 1029 l 644 1029 l 410 824 l 313 824 "},"ĕ":{"ha":763,"x_min":0,"x_max":0,"o":"m 394 -19 b 42 361 206 -19 42 110 b 394 775 42 607 189 775 b 718 357 606 775 718 610 l 172 357 b 394 78 175 176 274 78 b 626 260 514 78 597 163 l 728 188 b 394 -19 649 53 533 -19 m 589 454 b 394 678 578 583 510 678 b 179 454 282 678 203 593 m 293 1029 b 394 908 296 971 318 908 b 497 1029 474 908 496 971 l 583 1029 b 394 824 586 911 519 824 b 207 1029 271 824 203 911 "},"ě":{"ha":763,"x_min":0,"x_max":0,"o":"m 394 -19 b 42 361 206 -19 42 110 b 394 775 42 607 189 775 b 718 357 606 775 718 610 l 172 357 b 394 78 175 176 274 78 b 626 260 514 78 597 163 l 728 188 b 394 -19 649 53 533 -19 m 260 1029 l 396 908 l 531 1029 l 636 1029 l 450 824 l 340 824 l 156 1029 m 589 454 b 394 678 578 583 510 678 b 179 454 282 678 203 593 "},"ê":{"ha":761,"x_min":0,"x_max":0,"o":"m 394 -19 b 42 361 206 -19 42 110 b 394 775 42 607 189 775 b 718 357 606 775 718 610 l 172 357 b 394 78 175 176 274 78 b 626 260 514 78 597 163 l 728 188 b 394 -19 649 53 533 -19 m 343 1029 l 453 1029 l 638 824 l 533 824 l 397 944 l 263 824 l 157 824 m 589 454 b 394 678 578 583 510 678 b 179 454 282 678 203 593 "},"ë":{"ha":763,"x_min":0,"x_max":0,"o":"m 394 -19 b 42 361 206 -19 42 110 b 394 775 42 607 189 775 b 718 357 606 775 718 610 l 172 357 b 394 78 175 176 274 78 b 626 260 514 78 597 163 l 728 188 b 394 -19 649 53 533 -19 m 589 454 b 394 678 578 583 510 678 b 179 454 282 678 203 593 m 213 1001 l 340 1001 l 340 874 l 213 874 m 450 1001 l 576 1001 l 576 874 l 450 874 "},"ė":{"ha":763,"x_min":0,"x_max":0,"o":"m 394 -19 b 42 361 206 -19 42 110 b 394 775 42 607 189 775 b 718 357 606 775 718 610 l 172 357 b 394 78 175 176 274 78 b 626 260 514 78 597 163 l 728 188 b 394 -19 649 53 533 -19 m 589 454 b 394 678 578 583 510 678 b 179 454 282 678 203 593 m 325 1004 l 465 1004 l 465 871 l 325 871 "},"ẹ":{"ha":761,"x_min":0,"x_max":0,"o":"m 394 -19 b 42 361 206 -19 42 110 b 394 775 42 607 189 775 b 718 357 606 775 718 610 l 172 357 b 394 78 175 176 274 78 b 626 260 514 78 597 163 l 728 188 b 394 -19 649 53 533 -19 m 589 454 b 394 678 578 583 510 678 b 179 454 282 678 203 593 m 314 -89 l 454 -89 l 454 -222 l 314 -222 "},"è":{"ha":763,"x_min":0,"x_max":0,"o":"m 394 -19 b 42 361 206 -19 42 110 b 394 775 42 607 189 775 b 718 357 606 775 718 610 l 172 357 b 394 78 175 176 274 78 b 626 260 514 78 597 163 l 728 188 b 394 -19 649 53 533 -19 m 315 1029 l 476 824 l 379 824 l 144 1029 m 589 454 b 394 678 578 583 510 678 b 179 454 282 678 203 593 "},"ē":{"ha":763,"x_min":0,"x_max":0,"o":"m 394 -19 b 42 361 206 -19 42 110 b 394 775 42 607 189 775 b 718 357 606 775 718 610 l 172 357 b 394 78 175 176 274 78 b 626 260 514 78 597 163 l 728 188 b 394 -19 649 53 533 -19 m 589 454 b 394 678 578 583 510 678 b 179 454 282 678 203 593 m 192 953 l 597 953 l 597 860 l 192 860 "},"ę":{"ha":761,"x_min":0,"x_max":0,"o":"m 394 -19 b 42 361 206 -19 42 110 b 394 775 42 607 189 775 b 718 357 606 775 718 610 l 172 357 b 394 78 175 176 274 78 b 626 260 514 78 597 163 l 728 188 b 606 49 693 129 653 83 l 607 49 b 447 -151 499 -31 447 -92 b 506 -208 447 -187 471 -208 b 585 -179 539 -208 563 -197 l 607 -244 b 496 -274 575 -262 535 -274 b 361 -162 415 -274 361 -235 b 446 -17 361 -117 388 -67 b 394 -19 429 -18 413 -19 m 589 454 b 394 678 578 583 510 678 b 179 454 282 678 203 593 "},"ẽ":{"ha":763,"x_min":0,"x_max":0,"o":"m 394 -19 b 42 361 206 -19 42 110 b 394 775 42 607 189 775 b 718 357 606 775 718 610 l 172 357 b 394 78 175 176 274 78 b 626 260 514 78 597 163 l 728 188 b 394 -19 649 53 533 -19 m 164 865 b 294 1007 168 943 207 1007 b 501 926 390 1007 444 926 b 557 996 536 926 558 949 l 631 985 b 499 842 633 906 585 842 b 292 922 403 842 349 922 b 238 853 258 922 239 900 l 164 865 m 589 454 b 394 678 578 583 510 678 b 179 454 282 678 203 593 "},"ə":{"ha":761,"x_min":0,"x_max":0,"o":"m 367 775 b 719 394 556 775 719 646 b 367 -19 719 149 572 -19 b 43 399 156 -19 43 146 l 589 399 b 367 678 586 579 488 678 b 135 496 247 678 164 593 l 33 568 b 367 775 113 703 228 775 m 172 301 b 367 78 183 172 251 78 b 582 301 479 78 558 163 l 172 301 "},"f":{"ha":404,"x_min":0,"x_max":0,"o":"m 10 756 l 131 756 l 131 843 b 297 1013 131 933 174 1013 b 410 992 343 1013 381 1004 l 424 888 b 324 918 389 908 360 918 b 257 843 274 918 257 889 l 257 756 l 400 756 l 400 658 l 257 658 l 257 181 b 264 0 257 121 258 61 l 131 0 l 131 658 l 10 658 "},"g":{"ha":769,"x_min":0,"x_max":0,"o":"m 285 -290 b 26 -107 147 -290 26 -233 b 129 47 26 -39 67 10 b 51 157 83 67 51 103 b 183 304 51 219 106 272 b 78 514 117 351 78 426 b 358 775 78 664 193 775 b 593 703 499 775 536 703 b 658 796 642 703 658 743 l 761 761 b 638 647 758 681 699 647 b 604 651 628 647 617 649 b 642 514 628 611 642 565 b 358 253 642 364 525 253 b 231 278 311 253 268 261 b 158 193 181 254 158 222 b 240 140 158 153 196 140 b 550 200 336 140 431 200 b 747 29 668 200 747 138 b 285 -290 747 -175 496 -290 m 150 -82 b 311 -194 150 -162 221 -194 b 615 4 460 -194 615 -114 b 515 92 615 58 578 92 b 222 29 429 92 306 29 l 207 29 b 150 -82 171 3 150 -32 m 203 514 b 358 336 203 417 261 336 b 515 514 456 336 515 417 b 358 690 515 613 456 690 b 203 514 261 690 203 613 "},"ğ":{"ha":769,"x_min":0,"x_max":0,"o":"m 285 -290 b 26 -107 147 -290 26 -233 b 129 47 26 -39 67 10 b 51 157 83 67 51 103 b 183 304 51 219 106 272 b 78 514 117 351 78 426 b 358 775 78 664 193 775 b 593 703 499 775 536 703 b 658 796 642 703 658 743 l 761 761 b 638 647 758 681 699 647 b 604 651 628 647 617 649 b 642 514 628 611 642 565 b 358 253 642 364 525 253 b 231 278 311 253 268 261 b 158 193 181 254 158 222 b 240 140 158 153 196 140 b 550 200 336 140 431 200 b 747 29 668 200 747 138 b 285 -290 747 -175 496 -290 m 150 -82 b 311 -194 150 -162 221 -194 b 615 4 460 -194 615 -114 b 515 92 615 58 578 92 b 222 29 429 92 306 29 l 207 29 b 150 -82 171 3 150 -32 m 285 1029 b 386 908 288 971 310 908 b 489 1029 465 908 488 971 l 575 1029 b 386 824 578 911 511 824 b 199 1029 263 824 194 911 m 203 514 b 358 336 203 417 261 336 b 515 514 456 336 515 417 b 358 690 515 613 456 690 b 203 514 261 690 203 613 "},"ǧ":{"ha":769,"x_min":0,"x_max":0,"o":"m 285 -290 b 26 -107 147 -290 26 -233 b 129 47 26 -39 67 10 b 51 157 83 67 51 103 b 183 304 51 219 106 272 b 78 514 117 351 78 426 b 358 775 78 664 193 775 b 593 703 499 775 536 703 b 658 796 642 703 658 743 l 761 761 b 638 647 758 681 699 647 b 604 651 628 647 617 649 b 642 514 628 611 642 565 b 358 253 642 364 525 253 b 231 278 311 253 268 261 b 158 193 181 254 158 222 b 240 140 158 153 196 140 b 550 200 336 140 431 200 b 747 29 668 200 747 138 b 285 -290 747 -175 496 -290 m 251 1029 l 388 908 l 522 1029 l 628 1029 l 442 824 l 332 824 l 147 1029 m 150 -82 b 311 -194 150 -162 221 -194 b 615 4 460 -194 615 -114 b 515 92 615 58 578 92 b 222 29 429 92 306 29 l 207 29 b 150 -82 171 3 150 -32 m 203 514 b 358 336 203 417 261 336 b 515 514 456 336 515 417 b 358 690 515 613 456 690 b 203 514 261 690 203 613 "},"ĝ":{"ha":769,"x_min":0,"x_max":0,"o":"m 285 -290 b 26 -107 147 -290 26 -233 b 129 47 26 -39 67 10 b 51 157 83 67 51 103 b 183 304 51 219 106 272 b 78 514 117 351 78 426 b 358 775 78 664 193 775 b 593 703 499 775 536 703 b 658 796 642 703 658 743 l 761 761 b 638 647 758 681 699 647 b 604 651 628 647 617 649 b 642 514 628 611 642 565 b 358 253 642 364 525 253 b 231 278 311 253 268 261 b 158 193 181 254 158 222 b 240 140 158 153 196 140 b 550 200 336 140 431 200 b 747 29 668 200 747 138 b 285 -290 747 -175 496 -290 m 150 -82 b 311 -194 150 -162 221 -194 b 615 4 460 -194 615 -114 b 515 92 615 58 578 92 b 222 29 429 92 306 29 l 207 29 b 150 -82 171 3 150 -32 m 336 1029 l 446 1029 l 631 824 l 526 824 l 390 944 l 256 824 l 150 824 m 203 514 b 358 336 203 417 261 336 b 515 514 456 336 515 417 b 358 690 515 613 456 690 b 203 514 261 690 203 613 "},"ģ":{"ha":769,"x_min":0,"x_max":0,"o":"m 285 -290 b 26 -107 147 -290 26 -233 b 129 47 26 -39 67 10 b 51 157 83 67 51 103 b 183 304 51 219 106 272 b 78 514 117 351 78 426 b 358 775 78 664 193 775 b 593 703 499 775 536 703 b 658 796 642 703 658 743 l 761 761 b 638 647 758 681 699 647 b 604 651 628 647 617 649 b 642 514 628 611 642 565 b 358 253 642 364 525 253 b 231 278 311 253 268 261 b 158 193 181 254 158 222 b 240 140 158 153 196 140 b 550 200 336 140 431 200 b 747 29 668 200 747 138 b 285 -290 747 -175 496 -290 m 150 -82 b 311 -194 150 -162 221 -194 b 615 4 460 -194 615 -114 b 515 92 615 58 578 92 b 222 29 429 92 306 29 l 207 29 b 150 -82 171 3 150 -32 m 203 514 b 358 336 203 417 261 336 b 515 514 456 336 515 417 b 358 690 515 613 456 690 b 203 514 261 690 203 613 m 331 825 b 369 1085 346 893 360 993 l 456 1085 l 442 825 l 331 825 "},"ġ":{"ha":769,"x_min":0,"x_max":0,"o":"m 285 -290 b 26 -107 147 -290 26 -233 b 129 47 26 -39 67 10 b 51 157 83 67 51 103 b 183 304 51 219 106 272 b 78 514 117 351 78 426 b 358 775 78 664 193 775 b 593 703 499 775 536 703 b 658 796 642 703 658 743 l 761 761 b 638 647 758 681 699 647 b 604 651 628 647 617 649 b 642 514 628 611 642 565 b 358 253 642 364 525 253 b 231 278 311 253 268 261 b 158 193 181 254 158 222 b 240 140 158 153 196 140 b 550 200 336 140 431 200 b 747 29 668 200 747 138 b 285 -290 747 -175 496 -290 m 150 -82 b 311 -194 150 -162 221 -194 b 615 4 460 -194 615 -114 b 515 92 615 58 578 92 b 222 29 429 92 306 29 l 207 29 b 150 -82 171 3 150 -32 m 203 514 b 358 336 203 417 261 336 b 515 514 456 336 515 417 b 358 690 515 613 456 690 b 203 514 261 690 203 613 m 317 1004 l 457 1004 l 457 871 l 317 871 "},"ḡ":{"ha":769,"x_min":0,"x_max":0,"o":"m 285 -290 b 26 -107 147 -290 26 -233 b 129 47 26 -39 67 10 b 51 157 83 67 51 103 b 183 304 51 219 106 272 b 78 514 117 351 78 426 b 358 775 78 664 193 775 b 593 703 499 775 536 703 b 658 796 642 703 658 743 l 761 761 b 638 647 758 681 699 647 b 604 651 628 647 617 649 b 642 514 628 611 642 565 b 358 253 642 364 525 253 b 231 278 311 253 268 261 b 158 193 181 254 158 222 b 240 140 158 153 196 140 b 550 200 336 140 431 200 b 747 29 668 200 747 138 b 285 -290 747 -175 496 -290 m 150 -82 b 311 -194 150 -162 221 -194 b 615 4 460 -194 615 -114 b 515 92 615 58 578 92 b 222 29 429 92 306 29 l 207 29 b 150 -82 171 3 150 -32 m 183 953 l 589 953 l 589 860 l 183 860 m 203 514 b 358 336 203 417 261 336 b 515 514 456 336 515 417 b 358 690 515 613 456 690 b 203 514 261 690 203 613 "},"h":{"ha":811,"x_min":0,"x_max":0,"o":"m 610 504 b 465 671 610 611 564 671 b 210 350 349 671 210 535 l 210 0 l 85 0 l 85 993 l 210 993 l 210 538 b 500 775 258 674 375 775 b 733 522 658 775 733 668 l 733 181 b 740 0 733 121 735 61 l 610 0 l 610 504 "},"ħ":{"ha":811,"x_min":0,"x_max":0,"o":"m 610 504 b 465 671 610 611 564 671 b 210 350 349 671 210 535 l 210 0 l 85 0 l 85 833 l -21 833 l -21 926 l 85 926 l 85 993 l 210 993 l 210 926 l 385 926 l 385 833 l 210 833 l 210 538 b 500 775 258 674 375 775 b 733 522 658 775 733 668 l 733 181 b 740 0 733 121 735 61 l 610 0 l 610 504 "},"ĥ":{"ha":811,"x_min":0,"x_max":0,"o":"m 610 504 b 465 671 610 611 564 671 b 210 350 349 671 210 535 l 210 0 l 85 0 l 85 993 l 210 993 l 210 538 b 500 775 258 674 375 775 b 733 522 658 775 733 668 l 733 181 b 740 0 733 121 735 61 l 610 0 l 610 504 m 94 1267 l 204 1267 l 389 1061 l 285 1061 l 149 1182 l 14 1061 l -92 1061 "},"i":{"ha":294,"x_min":0,"x_max":0,"o":"m 85 756 l 210 756 l 210 181 b 217 0 210 121 211 61 l 85 0 m 76 1004 l 217 1004 l 217 871 l 76 871 "},"ı":{"ha":294,"x_min":0,"x_max":0,"o":"m 85 756 l 210 756 l 210 181 b 217 0 210 121 211 61 l 85 0 "},"í":{"ha":294,"x_min":0,"x_max":0,"o":"m 85 756 l 210 756 l 210 181 b 217 0 210 121 211 61 l 85 0 m 226 1029 l 397 1029 l 163 824 l 65 824 "},"ĭ":{"ha":294,"x_min":0,"x_max":0,"o":"m 85 756 l 210 756 l 210 181 b 217 0 210 121 211 61 l 85 0 m 44 1029 b 146 908 47 971 69 908 b 249 1029 225 908 247 971 l 335 1029 b 146 824 338 911 271 824 b -42 1029 22 824 -46 911 "},"î":{"ha":294,"x_min":0,"x_max":0,"o":"m 85 756 l 210 756 l 210 181 b 217 0 210 121 211 61 l 85 0 m 96 1029 l 206 1029 l 390 824 l 286 824 l 150 944 l 15 824 l -90 824 "},"ï":{"ha":294,"x_min":0,"x_max":0,"o":"m 85 756 l 210 756 l 210 181 b 217 0 210 121 211 61 l 85 0 m -36 1001 l 92 1001 l 92 874 l -36 874 m 201 1001 l 328 1001 l 328 874 l 201 874 "},"ị":{"ha":294,"x_min":0,"x_max":0,"o":"m 85 756 l 210 756 l 210 181 b 217 0 210 121 211 61 l 85 0 m 76 1004 l 217 1004 l 217 871 l 76 871 m 78 -89 l 218 -89 l 218 -222 l 78 -222 "},"ì":{"ha":294,"x_min":0,"x_max":0,"o":"m 85 756 l 210 756 l 210 181 b 217 0 210 121 211 61 l 85 0 m 65 1029 l 226 824 l 129 824 l -106 1029 "},"ĳ":{"ha":589,"x_min":0,"x_max":0,"o":"m 85 756 l 210 756 l 210 181 b 217 0 210 121 211 61 l 85 0 m 76 1004 l 217 1004 l 217 871 l 76 871 m 239 -157 b 321 -185 264 -175 285 -185 b 379 -107 346 -185 379 -175 l 379 756 l 504 756 l 504 -117 b 346 -290 504 -231 450 -290 b 254 -272 311 -290 279 -283 l 239 -157 m 372 1004 l 513 1004 l 513 871 l 372 871 "},"ī":{"ha":294,"x_min":0,"x_max":0,"o":"m 85 756 l 210 756 l 210 181 b 217 0 210 121 211 61 l 85 0 m -57 953 l 349 953 l 349 860 l -57 860 "},"į":{"ha":294,"x_min":0,"x_max":0,"o":"m 85 756 l 210 756 l 210 181 b 217 0 210 121 211 61 l 215 0 b 88 -161 129 -71 88 -115 b 143 -208 88 -190 108 -208 b 222 -179 176 -208 200 -197 l 243 -244 b 133 -274 213 -262 172 -274 b 3 -172 56 -274 3 -236 b 142 0 3 -112 47 -61 l 85 0 m 76 1004 l 217 1004 l 217 871 l 76 871 "},"ĩ":{"ha":294,"x_min":0,"x_max":0,"o":"m 85 756 l 210 756 l 210 181 b 217 0 210 121 211 61 l 85 0 m -83 865 b 47 1007 -79 943 -40 1007 b 254 926 143 1007 197 926 b 310 996 289 926 311 949 l 383 985 b 251 842 386 906 338 842 b 44 922 156 842 101 922 b -10 853 11 922 -8 900 l -83 865 "},"j":{"ha":294,"x_min":0,"x_max":0,"o":"m 51 -290 b -40 -272 17 -290 -15 -283 l -56 -157 b 26 -185 -31 -175 -10 -185 b 85 -107 51 -185 85 -175 l 85 756 l 210 756 l 210 -117 b 51 -290 210 -231 156 -290 m 78 1004 l 218 1004 l 218 871 l 78 871 "},"ȷ":{"ha":294,"x_min":0,"x_max":0,"o":"m 51 -290 b -40 -272 17 -290 -15 -283 l -56 -157 b 26 -185 -31 -175 -10 -185 b 85 -107 51 -185 85 -175 l 85 756 l 210 756 l 210 -117 b 51 -290 210 -231 156 -290 "},"ĵ":{"ha":294,"x_min":0,"x_max":0,"o":"m 51 -290 b -40 -272 17 -290 -15 -283 l -56 -157 b 26 -185 -31 -175 -10 -185 b 85 -107 51 -185 85 -175 l 85 756 l 210 756 l 210 -117 b 51 -290 210 -231 156 -290 m 96 1029 l 206 1029 l 390 824 l 286 824 l 150 944 l 15 824 l -90 824 "},"k":{"ha":718,"x_min":0,"x_max":0,"o":"m 85 993 l 210 993 l 210 383 l 474 649 b 561 756 507 682 536 715 l 707 756 l 422 460 l 738 0 l 588 0 l 333 371 l 210 250 l 210 0 l 85 0 "},"ķ":{"ha":718,"x_min":0,"x_max":0,"o":"m 85 993 l 210 993 l 210 383 l 474 649 b 561 756 507 682 536 715 l 707 756 l 422 460 l 738 0 l 588 0 l 333 371 l 210 250 l 210 0 l 85 0 m 338 -69 l 449 -69 b 410 -329 433 -137 419 -237 l 324 -329 "},"ĸ":{"ha":718,"x_min":0,"x_max":0,"o":"m 85 756 l 210 756 l 210 389 l 475 649 b 561 756 508 682 538 715 l 707 756 l 422 460 l 738 0 l 588 0 l 333 371 l 210 253 l 210 0 l 85 0 "},"l":{"ha":294,"x_min":0,"x_max":0,"o":"m 85 993 l 210 993 l 210 181 b 217 0 210 121 211 61 l 85 0 "},"ĺ":{"ha":294,"x_min":0,"x_max":0,"o":"m 85 993 l 210 993 l 210 181 b 217 0 210 121 211 61 l 85 0 m 225 1267 l 396 1267 l 161 1061 l 64 1061 "},"ľ":{"ha":382,"x_min":0,"x_max":0,"o":"m 85 993 l 210 993 l 210 181 b 217 0 210 121 211 61 l 85 0 m 293 993 l 404 993 b 365 733 389 925 375 825 l 279 733 "},"ļ":{"ha":294,"x_min":0,"x_max":0,"o":"m 85 993 l 210 993 l 210 181 b 217 0 210 121 211 61 l 85 0 m 92 -69 l 203 -69 b 164 -329 188 -137 174 -237 l 78 -329 "},"ŀ":{"ha":443,"x_min":0,"x_max":0,"o":"m 85 993 l 210 993 l 210 181 b 217 0 210 121 211 61 l 85 0 m 293 593 l 422 593 l 422 458 l 293 458 "},"ł":{"ha":429,"x_min":0,"x_max":0,"o":"m 6 486 l 154 579 l 154 993 l 279 993 l 279 658 l 389 728 l 432 654 l 279 558 l 279 181 b 286 0 279 121 281 61 l 154 0 l 154 479 l 49 413 "},"m":{"ha":1221,"x_min":0,"x_max":0,"o":"m 1018 504 b 892 667 1018 610 979 667 b 676 349 776 667 676 533 l 676 0 l 551 0 l 551 504 b 425 667 551 610 511 667 b 210 349 308 667 210 532 l 210 0 l 85 0 l 85 756 l 210 756 l 210 560 b 463 775 254 685 350 775 b 672 556 600 775 664 688 b 929 775 718 683 815 775 b 1142 521 1083 775 1142 667 l 1142 181 b 1150 0 1142 121 1144 61 l 1018 0 l 1018 504 "},"n":{"ha":811,"x_min":0,"x_max":0,"o":"m 85 756 l 210 756 l 210 542 b 500 775 260 678 379 775 b 733 522 658 775 733 668 l 733 181 b 740 0 733 121 735 61 l 608 0 l 608 504 b 465 671 608 611 564 671 b 210 350 349 671 210 539 l 210 0 l 85 0 "},"ń":{"ha":811,"x_min":0,"x_max":0,"o":"m 85 756 l 210 756 l 210 542 b 500 775 260 678 379 775 b 733 522 658 775 733 668 l 733 181 b 740 0 733 121 735 61 l 608 0 l 608 504 b 465 671 608 611 564 671 b 210 350 349 671 210 539 l 210 0 l 85 0 m 490 1029 l 661 1029 l 426 824 l 329 824 "},"ŉ":{"ha":924,"x_min":0,"x_max":0,"o":"m -64 707 l 46 856 l -37 856 l -37 993 l 100 993 l 100 856 b 17 640 63 783 35 711 m 193 756 l 318 756 l 318 542 b 608 775 368 678 488 775 b 842 522 767 775 842 668 l 842 181 b 849 0 842 121 843 61 l 717 0 l 717 504 b 574 671 717 611 672 671 b 318 350 457 671 318 539 l 318 0 l 193 0 "},"ň":{"ha":811,"x_min":0,"x_max":0,"o":"m 85 756 l 210 756 l 210 542 b 500 775 260 678 379 775 b 733 522 658 775 733 668 l 733 181 b 740 0 733 121 735 61 l 608 0 l 608 504 b 465 671 608 611 564 671 b 210 350 349 671 210 539 l 210 0 l 85 0 m 275 1029 l 411 908 l 546 1029 l 651 1029 l 465 824 l 356 824 l 171 1029 "},"ņ":{"ha":811,"x_min":0,"x_max":0,"o":"m 85 756 l 210 756 l 210 542 b 500 775 260 678 379 775 b 733 522 658 775 733 668 l 733 181 b 740 0 733 121 735 61 l 608 0 l 608 504 b 465 671 608 611 564 671 b 210 350 349 671 210 539 l 210 0 l 85 0 m 357 -69 l 468 -69 b 429 -329 453 -137 439 -237 l 343 -329 "},"ɲ":{"ha":814,"x_min":0,"x_max":0,"o":"m 51 -296 b -40 -278 14 -296 -15 -289 l -56 -161 b 26 -187 -29 -179 -8 -187 b 85 -108 51 -187 85 -176 l 85 756 l 210 756 l 210 542 b 500 775 260 678 379 775 b 733 522 658 775 733 668 l 733 181 b 740 0 733 121 735 61 l 608 0 l 608 504 b 465 671 608 611 564 671 b 210 350 349 671 210 539 l 210 -119 b 51 -296 210 -235 156 -296 "},"ñ":{"ha":811,"x_min":0,"x_max":0,"o":"m 85 756 l 210 756 l 210 542 b 500 775 260 678 379 775 b 733 522 658 775 733 668 l 733 181 b 740 0 733 121 735 61 l 608 0 l 608 504 b 465 671 608 611 564 671 b 210 350 349 671 210 539 l 210 0 l 85 0 m 179 865 b 310 1007 183 943 222 1007 b 517 926 406 1007 460 926 b 572 996 551 926 574 949 l 646 985 b 514 842 649 906 600 842 b 307 922 418 842 364 922 b 253 853 274 922 254 900 l 179 865 "},"ŋ":{"ha":808,"x_min":0,"x_max":0,"o":"m 574 -293 b 482 -275 539 -293 507 -286 l 467 -161 b 549 -186 493 -176 514 -186 b 607 -110 574 -186 607 -178 l 607 506 b 464 671 607 613 561 671 b 210 350 346 671 210 531 l 210 0 l 85 0 l 85 756 l 210 756 l 210 539 b 499 775 263 674 375 775 b 731 522 657 775 731 668 l 731 -118 b 574 -293 731 -229 679 -293 "},"o":{"ha":792,"x_min":0,"x_max":0,"o":"m 396 -19 b 42 379 169 -19 42 161 b 396 775 42 596 169 775 b 751 379 618 775 751 593 b 396 -19 751 161 621 -19 m 174 378 b 396 78 174 207 254 78 b 617 379 536 78 617 210 b 396 678 617 546 538 678 b 174 378 254 678 174 546 "},"ó":{"ha":792,"x_min":0,"x_max":0,"o":"m 396 -19 b 42 379 169 -19 42 161 b 396 775 42 596 169 775 b 751 379 618 775 751 593 b 396 -19 751 161 621 -19 m 174 378 b 396 78 174 207 254 78 b 617 379 536 78 617 210 b 396 678 617 546 538 678 b 174 378 254 678 174 546 m 475 1029 l 646 1029 l 411 824 l 314 824 "},"ŏ":{"ha":792,"x_min":0,"x_max":0,"o":"m 396 -19 b 42 379 169 -19 42 161 b 396 775 42 596 169 775 b 751 379 618 775 751 593 b 396 -19 751 161 621 -19 m 174 378 b 396 78 174 207 254 78 b 617 379 536 78 617 210 b 396 678 617 546 538 678 b 174 378 254 678 174 546 m 294 1029 b 396 908 297 971 319 908 b 499 1029 475 908 497 971 l 585 1029 b 396 824 588 911 521 824 b 208 1029 272 824 204 911 "},"ô":{"ha":792,"x_min":0,"x_max":0,"o":"m 396 -19 b 42 379 169 -19 42 161 b 396 775 42 596 169 775 b 751 379 618 775 751 593 b 396 -19 751 161 621 -19 m 344 1029 l 454 1029 l 639 824 l 535 824 l 399 944 l 264 824 l 158 824 m 174 378 b 396 78 174 207 254 78 b 617 379 536 78 617 210 b 396 678 617 546 538 678 b 174 378 254 678 174 546 "},"ö":{"ha":792,"x_min":0,"x_max":0,"o":"m 396 -19 b 42 379 169 -19 42 161 b 396 775 42 596 169 775 b 751 379 618 775 751 593 b 396 -19 751 161 621 -19 m 174 378 b 396 78 174 207 254 78 b 617 379 536 78 617 210 b 396 678 617 546 538 678 b 174 378 254 678 174 546 m 214 1001 l 342 1001 l 342 874 l 214 874 m 451 1001 l 578 1001 l 578 874 l 451 874 "},"ọ":{"ha":792,"x_min":0,"x_max":0,"o":"m 396 -19 b 42 379 169 -19 42 161 b 396 775 42 596 169 775 b 751 379 618 775 751 593 b 396 -19 751 161 621 -19 m 174 378 b 396 78 174 207 254 78 b 617 379 536 78 617 210 b 396 678 617 546 538 678 b 174 378 254 678 174 546 m 326 -89 l 467 -89 l 467 -222 l 326 -222 "},"ò":{"ha":792,"x_min":0,"x_max":0,"o":"m 396 -19 b 42 379 169 -19 42 161 b 396 775 42 596 169 775 b 751 379 618 775 751 593 b 396 -19 751 161 621 -19 m 314 1029 l 475 824 l 378 824 l 143 1029 m 174 378 b 396 78 174 207 254 78 b 617 379 536 78 617 210 b 396 678 617 546 538 678 b 174 378 254 678 174 546 "},"ő":{"ha":792,"x_min":0,"x_max":0,"o":"m 396 -19 b 42 379 169 -19 42 161 b 396 775 42 596 169 775 b 751 379 618 775 751 593 b 396 -19 751 161 621 -19 m 174 378 b 396 78 174 207 254 78 b 617 379 536 78 617 210 b 396 678 617 546 538 678 b 174 378 254 678 174 546 m 351 1025 l 508 1025 l 289 824 l 196 824 m 592 1025 l 749 1025 l 529 824 l 435 824 "},"ō":{"ha":792,"x_min":0,"x_max":0,"o":"m 396 -19 b 42 379 169 -19 42 161 b 396 775 42 596 169 775 b 751 379 618 775 751 593 b 396 -19 751 161 621 -19 m 174 378 b 396 78 174 207 254 78 b 617 379 536 78 617 210 b 396 678 617 546 538 678 b 174 378 254 678 174 546 m 193 953 l 599 953 l 599 860 l 193 860 "},"ǫ":{"ha":792,"x_min":0,"x_max":0,"o":"m 396 78 b 617 379 536 78 617 210 b 396 678 617 546 538 678 b 174 378 254 678 174 546 b 396 78 174 207 254 78 m 42 379 b 396 775 42 596 169 775 b 751 379 618 775 751 593 b 481 -10 751 190 653 29 b 365 -161 403 -75 365 -118 b 421 -208 365 -190 386 -208 b 500 -179 454 -208 478 -197 l 521 -244 b 411 -274 490 -262 450 -274 b 281 -172 333 -274 281 -236 b 390 -19 281 -119 315 -72 b 42 379 168 -17 42 163 "},"ø":{"ha":792,"x_min":0,"x_max":0,"o":"m 161 -53 l 200 38 b 42 379 97 108 42 235 b 396 775 42 596 169 775 b 510 757 438 775 475 769 l 547 844 l 635 808 l 594 714 b 751 379 694 643 751 518 b 396 -19 751 161 621 -19 b 288 -4 357 -19 321 -14 l 251 -90 m 174 378 b 246 144 174 282 199 199 l 469 664 b 396 678 447 674 422 678 b 174 378 254 678 174 546 m 328 89 b 396 78 349 82 371 78 b 617 379 536 78 617 210 b 549 606 617 471 593 551 l 328 89 "},"ǿ":{"ha":792,"x_min":0,"x_max":0,"o":"m 161 -53 l 200 38 b 42 379 97 108 42 235 b 396 775 42 596 169 775 b 510 757 438 775 475 769 l 547 844 l 635 808 l 594 714 b 751 379 694 643 751 518 b 396 -19 751 161 621 -19 b 288 -4 357 -19 321 -14 l 251 -90 m 174 378 b 246 144 174 282 199 199 l 469 664 b 396 678 447 674 422 678 b 174 378 254 678 174 546 m 476 1029 l 647 1029 l 413 824 l 315 824 m 328 89 b 396 78 349 82 371 78 b 617 379 536 78 617 210 b 549 606 617 471 593 551 l 328 89 "},"õ":{"ha":792,"x_min":0,"x_max":0,"o":"m 396 -19 b 42 379 169 -19 42 161 b 396 775 42 596 169 775 b 751 379 618 775 751 593 b 396 -19 751 161 621 -19 m 165 865 b 296 1007 169 943 208 1007 b 503 926 392 1007 446 926 b 558 996 538 926 560 949 l 632 985 b 500 842 635 906 586 842 b 293 922 404 842 350 922 b 239 853 260 922 240 900 l 165 865 m 174 378 b 396 78 174 207 254 78 b 617 379 536 78 617 210 b 396 678 617 546 538 678 b 174 378 254 678 174 546 "},"œ":{"ha":1340,"x_min":0,"x_max":0,"o":"m 396 -19 b 42 379 169 -19 42 161 b 396 775 42 596 169 775 b 686 617 526 775 626 713 b 972 775 749 715 850 775 b 1296 357 1183 775 1296 610 l 751 357 b 750 346 751 353 750 350 b 972 78 757 172 854 78 b 1204 260 1092 78 1175 163 l 1306 188 b 972 -19 1226 53 1111 -19 b 682 129 854 -19 746 31 b 396 -19 621 39 524 -19 m 174 378 b 396 78 174 207 254 78 b 617 379 536 78 617 210 b 396 678 617 546 538 678 b 174 378 254 678 174 546 m 1167 454 b 972 678 1156 583 1088 678 b 757 454 860 678 781 593 "},"p":{"ha":828,"x_min":0,"x_max":0,"o":"m 458 -19 b 210 154 350 -19 257 50 l 210 -90 b 217 -271 210 -150 211 -210 l 85 -271 l 85 756 l 210 756 l 210 599 b 460 775 257 706 350 775 b 786 378 654 775 786 614 b 458 -19 786 143 651 -19 m 210 339 b 431 85 210 197 308 85 b 653 378 561 85 653 204 b 431 671 653 551 561 671 b 210 414 307 671 210 556 l 210 339 "},"þ":{"ha":828,"x_min":0,"x_max":0,"o":"m 458 -19 b 210 154 350 -19 257 50 l 210 -271 l 85 -271 l 85 993 l 210 993 l 210 599 b 460 775 257 706 350 775 b 786 378 654 775 786 614 b 458 -19 786 143 651 -19 m 210 339 b 431 85 210 197 308 85 b 653 378 561 85 653 204 b 431 671 653 551 561 671 b 210 414 307 671 210 556 l 210 339 "},"q":{"ha":829,"x_min":0,"x_max":0,"o":"m 368 -19 b 42 378 174 -19 42 142 b 369 775 42 613 176 775 b 619 601 478 775 571 706 l 619 756 l 744 756 l 744 -90 b 751 -271 744 -150 746 -210 l 619 -271 l 619 157 b 368 -19 571 50 478 -19 m 175 378 b 399 85 175 204 267 85 b 619 342 522 85 619 200 l 619 417 b 399 671 619 558 519 671 b 175 378 267 671 175 551 "},"r":{"ha":515,"x_min":0,"x_max":0,"o":"m 85 756 l 210 756 l 210 575 b 413 775 256 693 333 775 b 515 731 456 775 485 763 l 463 614 b 375 654 435 643 413 654 b 210 382 297 654 210 535 l 210 169 b 217 0 210 106 211 53 l 85 0 "},"ŕ":{"ha":515,"x_min":0,"x_max":0,"o":"m 85 756 l 210 756 l 210 575 b 413 775 256 693 333 775 b 515 731 456 775 485 763 l 463 614 b 375 654 435 643 413 654 b 210 382 297 654 210 535 l 210 169 b 217 0 210 106 211 53 l 85 0 m 375 1029 l 546 1029 l 311 824 l 214 824 "},"ř":{"ha":515,"x_min":0,"x_max":0,"o":"m 85 756 l 210 756 l 210 575 b 413 775 256 693 333 775 b 515 731 456 775 485 763 l 463 614 b 375 654 435 643 413 654 b 210 382 297 654 210 535 l 210 169 b 217 0 210 106 211 53 l 85 0 m 160 1029 l 296 908 l 431 1029 l 536 1029 l 350 824 l 240 824 l 56 1029 "},"ŗ":{"ha":515,"x_min":0,"x_max":0,"o":"m 85 756 l 210 756 l 210 575 b 413 775 256 693 333 775 b 515 731 456 775 485 763 l 463 614 b 375 654 435 643 413 654 b 210 382 297 654 210 535 l 210 169 b 217 0 210 106 211 53 l 85 0 m 94 -69 l 206 -69 b 167 -329 190 -137 176 -237 l 81 -329 "},"s":{"ha":674,"x_min":0,"x_max":0,"o":"m 365 -19 b 19 176 219 -19 90 57 l 111 253 b 367 75 157 144 254 75 b 517 196 451 75 517 119 b 61 571 517 385 61 300 b 318 775 61 690 168 775 b 626 615 426 775 540 743 l 532 539 b 318 681 490 643 393 681 b 182 582 238 681 182 640 b 639 206 182 411 639 494 b 365 -19 639 63 515 -19 "},"ś":{"ha":674,"x_min":0,"x_max":0,"o":"m 365 -19 b 19 176 219 -19 90 57 l 111 253 b 367 75 157 144 254 75 b 517 196 451 75 517 119 b 61 571 517 385 61 300 b 318 775 61 690 168 775 b 626 615 426 775 540 743 l 532 539 b 318 681 490 643 393 681 b 182 582 238 681 182 640 b 639 206 182 411 639 494 b 365 -19 639 63 515 -19 m 421 1029 l 592 1029 l 357 824 l 260 824 "},"š":{"ha":674,"x_min":0,"x_max":0,"o":"m 365 -19 b 19 176 219 -19 90 57 l 111 253 b 367 75 157 144 254 75 b 517 196 451 75 517 119 b 61 571 517 385 61 300 b 318 775 61 690 168 775 b 626 615 426 775 540 743 l 532 539 b 318 681 490 643 393 681 b 182 582 238 681 182 640 b 639 206 182 411 639 494 b 365 -19 639 63 515 -19 m 204 1029 l 340 908 l 475 1029 l 581 1029 l 394 824 l 285 824 l 100 1029 "},"ş":{"ha":674,"x_min":0,"x_max":0,"o":"m 342 -281 b 211 -254 300 -281 250 -271 l 203 -172 b 342 -210 253 -197 293 -210 b 432 -168 378 -210 432 -206 b 278 -108 432 -139 389 -118 l 328 -18 b 19 176 197 -6 85 67 l 111 253 b 367 75 157 144 254 75 b 517 196 451 75 517 119 b 61 571 517 385 61 300 b 318 775 61 690 168 775 b 626 615 426 775 540 743 l 532 539 b 318 681 490 643 393 681 b 182 582 238 681 182 640 b 639 206 182 411 639 494 b 422 -15 639 82 546 3 l 392 -68 b 525 -168 472 -78 525 -114 b 342 -281 525 -239 447 -281 "},"ŝ":{"ha":674,"x_min":0,"x_max":0,"o":"m 365 -19 b 19 176 219 -19 90 57 l 111 253 b 367 75 157 144 254 75 b 517 196 451 75 517 119 b 61 571 517 385 61 300 b 318 775 61 690 168 775 b 626 615 426 775 540 743 l 532 539 b 318 681 490 643 393 681 b 182 582 238 681 182 640 b 639 206 182 411 639 494 b 365 -19 639 63 515 -19 m 290 1029 l 400 1029 l 585 824 l 481 824 l 344 944 l 210 824 l 104 824 "},"ș":{"ha":674,"x_min":0,"x_max":0,"o":"m 365 -19 b 19 176 219 -19 90 57 l 111 253 b 367 75 157 144 254 75 b 517 196 451 75 517 119 b 61 571 517 385 61 300 b 318 775 61 690 168 775 b 626 615 426 775 540 743 l 532 539 b 318 681 490 643 393 681 b 182 582 238 681 182 640 b 639 206 182 411 639 494 b 365 -19 639 63 515 -19 m 292 -69 l 403 -69 b 364 -329 388 -137 374 -237 l 278 -329 "},"ß":{"ha":804,"x_min":0,"x_max":0,"o":"m 85 0 l 85 735 b 375 1013 85 917 193 1013 b 656 796 558 1013 656 915 b 464 539 656 632 464 626 b 783 211 464 438 783 449 b 514 -19 783 75 669 -19 b 278 79 424 -19 333 18 l 343 178 b 513 78 376 118 433 78 b 650 201 592 78 650 131 b 335 515 650 378 335 343 b 531 789 335 654 531 654 b 375 915 531 863 475 915 b 210 736 258 915 210 842 l 210 0 "},"t":{"ha":442,"x_min":0,"x_max":0,"o":"m 299 -19 b 133 151 194 -19 133 36 l 133 658 l 4 658 l 4 756 l 133 756 l 133 885 b 263 946 182 897 222 918 b 258 763 260 882 258 819 l 258 756 l 417 756 l 417 658 l 258 658 l 258 163 b 324 86 258 110 281 86 b 418 113 360 86 385 93 l 404 -1 b 299 -19 369 -14 331 -19 "},"ŧ":{"ha":442,"x_min":0,"x_max":0,"o":"m 299 -19 b 133 151 194 -19 133 36 l 133 453 l 4 453 l 4 546 l 133 546 l 133 658 l 4 658 l 4 756 l 133 756 l 133 885 b 263 946 182 897 222 918 b 258 763 260 882 258 819 l 258 756 l 417 756 l 417 658 l 258 658 l 258 546 l 421 546 l 421 453 l 258 453 l 258 163 b 324 86 258 110 281 86 b 418 113 360 86 385 93 l 404 -1 b 299 -19 369 -14 331 -19 "},"ť":{"ha":442,"x_min":0,"x_max":0,"o":"m 299 -19 b 133 151 194 -19 133 36 l 133 658 l 4 658 l 4 756 l 133 756 l 133 885 b 263 946 182 897 222 918 b 258 763 260 882 258 819 l 258 756 l 417 756 l 417 658 l 258 658 l 258 163 b 324 86 258 110 281 86 b 418 113 360 86 385 93 l 404 -1 b 299 -19 369 -14 331 -19 m 363 1086 l 474 1086 b 435 826 458 1018 444 918 l 349 826 "},"ţ":{"ha":442,"x_min":0,"x_max":0,"o":"m 4 756 l 133 756 l 133 885 b 263 946 182 897 222 918 b 258 763 260 882 258 819 l 258 756 l 417 756 l 417 658 l 258 658 l 258 163 b 324 86 258 110 281 86 b 418 113 360 86 385 93 l 404 -1 b 317 -19 375 -11 344 -17 l 288 -68 b 421 -168 368 -78 421 -114 b 238 -281 421 -239 343 -281 b 107 -254 196 -281 146 -271 l 99 -172 b 238 -210 149 -197 189 -210 b 328 -168 274 -210 328 -206 b 174 -108 328 -139 285 -118 l 228 -8 b 133 151 168 13 133 65 l 133 658 l 4 658 "},"ț":{"ha":442,"x_min":0,"x_max":0,"o":"m 299 -19 b 133 151 194 -19 133 36 l 133 658 l 4 658 l 4 756 l 133 756 l 133 885 b 263 946 182 897 222 918 b 258 763 260 882 258 819 l 258 756 l 417 756 l 417 658 l 258 658 l 258 163 b 324 86 258 110 281 86 b 418 113 360 86 385 93 l 404 -1 b 299 -19 369 -14 331 -19 m 219 -69 l 331 -69 b 292 -329 315 -137 301 -237 l 206 -329 "},"u":{"ha":811,"x_min":0,"x_max":0,"o":"m 201 250 b 344 85 201 143 247 85 b 601 406 463 85 601 217 l 601 756 l 726 756 l 726 181 b 733 0 726 121 728 61 l 601 0 l 601 211 b 310 -19 550 76 431 -19 b 76 233 151 -19 76 88 l 76 756 l 201 756 l 201 250 "},"ú":{"ha":811,"x_min":0,"x_max":0,"o":"m 201 250 b 344 85 201 143 247 85 b 601 406 463 85 601 217 l 601 756 l 726 756 l 726 181 b 733 0 726 121 728 61 l 601 0 l 601 211 b 310 -19 550 76 431 -19 b 76 233 151 -19 76 88 l 76 756 l 201 756 l 201 250 m 481 1029 l 651 1029 l 417 824 l 319 824 "},"ŭ":{"ha":811,"x_min":0,"x_max":0,"o":"m 201 250 b 344 85 201 143 247 85 b 601 406 463 85 601 217 l 601 756 l 726 756 l 726 181 b 733 0 726 121 728 61 l 601 0 l 601 211 b 310 -19 550 76 431 -19 b 76 233 151 -19 76 88 l 76 756 l 201 756 l 201 250 m 299 1029 b 400 908 301 971 324 908 b 503 1029 479 908 501 971 l 589 1029 b 400 824 592 911 525 824 b 213 1029 276 824 208 911 "},"û":{"ha":811,"x_min":0,"x_max":0,"o":"m 201 250 b 344 85 201 143 247 85 b 601 406 463 85 601 217 l 601 756 l 726 756 l 726 181 b 733 0 726 121 728 61 l 601 0 l 601 211 b 310 -19 550 76 431 -19 b 76 233 151 -19 76 88 l 76 756 l 201 756 l 201 250 m 350 1029 l 460 1029 l 644 824 l 540 824 l 404 944 l 269 824 l 164 824 "},"ü":{"ha":811,"x_min":0,"x_max":0,"o":"m 201 250 b 344 85 201 143 247 85 b 601 406 463 85 601 217 l 601 756 l 726 756 l 726 181 b 733 0 726 121 728 61 l 601 0 l 601 211 b 310 -19 550 76 431 -19 b 76 233 151 -19 76 88 l 76 756 l 201 756 l 201 250 m 218 1001 l 346 1001 l 346 874 l 218 874 m 456 1001 l 582 1001 l 582 874 l 456 874 "},"ụ":{"ha":811,"x_min":0,"x_max":0,"o":"m 201 250 b 344 85 201 143 247 85 b 601 406 463 85 601 217 l 601 756 l 726 756 l 726 181 b 733 0 726 121 728 61 l 601 0 l 601 211 b 310 -19 550 76 431 -19 b 76 233 151 -19 76 88 l 76 756 l 201 756 l 201 250 m 331 -89 l 471 -89 l 471 -222 l 331 -222 "},"ù":{"ha":811,"x_min":0,"x_max":0,"o":"m 201 250 b 344 85 201 143 247 85 b 601 406 463 85 601 217 l 601 756 l 726 756 l 726 181 b 733 0 726 121 728 61 l 601 0 l 601 211 b 310 -19 550 76 431 -19 b 76 233 151 -19 76 88 l 76 756 l 201 756 l 201 250 m 319 1029 l 481 824 l 383 824 l 149 1029 "},"ű":{"ha":811,"x_min":0,"x_max":0,"o":"m 201 250 b 344 85 201 143 247 85 b 601 406 463 85 601 217 l 601 756 l 726 756 l 726 181 b 733 0 726 121 728 61 l 601 0 l 601 211 b 310 -19 550 76 431 -19 b 76 233 151 -19 76 88 l 76 756 l 201 756 l 201 250 m 356 1025 l 513 1025 l 293 824 l 200 824 m 596 1025 l 753 1025 l 533 824 l 439 824 "},"ū":{"ha":811,"x_min":0,"x_max":0,"o":"m 201 250 b 344 85 201 143 247 85 b 601 406 463 85 601 217 l 601 756 l 726 756 l 726 181 b 733 0 726 121 728 61 l 601 0 l 601 211 b 310 -19 550 76 431 -19 b 76 233 151 -19 76 88 l 76 756 l 201 756 l 201 250 m 197 953 l 603 953 l 603 860 l 197 860 "},"ų":{"ha":811,"x_min":0,"x_max":0,"o":"m 201 250 b 344 85 201 143 247 85 b 601 406 463 85 601 217 l 601 756 l 726 756 l 726 181 b 733 0 726 121 728 61 l 735 0 b 607 -161 649 -71 607 -115 b 663 -208 607 -190 628 -208 b 742 -179 696 -208 719 -197 l 763 -244 b 653 -274 732 -262 692 -274 b 522 -172 575 -274 522 -236 b 661 0 522 -112 567 -61 l 601 0 l 601 211 b 310 -19 550 76 431 -19 b 76 233 151 -19 76 88 l 76 756 l 201 756 l 201 250 "},"ů":{"ha":811,"x_min":0,"x_max":0,"o":"m 201 250 b 344 85 201 143 247 85 b 601 406 463 85 601 217 l 601 756 l 726 756 l 726 181 b 733 0 726 121 728 61 l 601 0 l 601 211 b 310 -19 550 76 431 -19 b 76 233 151 -19 76 88 l 76 756 l 201 756 l 201 250 m 243 961 b 400 1092 243 1038 308 1092 b 557 961 492 1092 557 1038 b 400 828 557 882 492 828 b 243 961 308 828 243 882 m 321 961 b 400 886 321 918 351 886 b 481 961 449 886 481 918 b 400 1033 481 1003 449 1033 b 321 961 351 1033 321 1003 "},"ũ":{"ha":811,"x_min":0,"x_max":0,"o":"m 201 250 b 344 85 201 143 247 85 b 601 406 463 85 601 217 l 601 756 l 726 756 l 726 181 b 733 0 726 121 728 61 l 601 0 l 601 211 b 310 -19 550 76 431 -19 b 76 233 151 -19 76 88 l 76 756 l 201 756 l 201 250 m 169 865 b 300 1007 174 943 213 1007 b 507 926 396 1007 450 926 b 563 996 542 926 564 949 l 636 985 b 504 842 639 906 590 842 b 297 922 408 842 354 922 b 243 853 264 922 244 900 l 169 865 "},"v":{"ha":711,"x_min":0,"x_max":0,"o":"m 7 756 l 142 756 l 317 294 b 364 139 349 211 364 139 b 424 294 364 139 393 211 l 540 613 b 578 756 558 661 569 704 l 703 756 l 421 0 l 294 0 "},"w":{"ha":1075,"x_min":0,"x_max":0,"o":"m 15 756 l 146 756 l 272 311 b 313 150 297 226 313 150 b 360 310 313 150 333 225 l 497 756 l 604 756 l 744 308 b 789 147 771 224 789 147 b 831 308 789 147 807 224 l 914 615 b 939 756 928 668 935 708 l 1057 756 l 844 0 l 711 0 l 539 572 l 364 0 l 231 0 "},"ẃ":{"ha":1075,"x_min":0,"x_max":0,"o":"m 15 756 l 146 756 l 272 311 b 313 150 297 226 313 150 b 360 310 313 150 333 225 l 497 756 l 604 756 l 744 308 b 789 147 771 224 789 147 b 831 308 789 147 807 224 l 914 615 b 939 756 928 668 935 708 l 1057 756 l 844 0 l 711 0 l 539 572 l 364 0 l 231 0 m 632 1029 l 803 1029 l 568 824 l 471 824 "},"ŵ":{"ha":1075,"x_min":0,"x_max":0,"o":"m 15 756 l 146 756 l 272 311 b 313 150 297 226 313 150 b 360 310 313 150 333 225 l 497 756 l 604 756 l 744 308 b 789 147 771 224 789 147 b 831 308 789 147 807 224 l 914 615 b 939 756 928 668 935 708 l 1057 756 l 844 0 l 711 0 l 539 572 l 364 0 l 231 0 m 500 1029 l 610 1029 l 794 824 l 690 824 l 554 944 l 419 824 l 314 824 "},"ẅ":{"ha":1075,"x_min":0,"x_max":0,"o":"m 15 756 l 146 756 l 272 311 b 313 150 297 226 313 150 b 360 310 313 150 333 225 l 497 756 l 604 756 l 744 308 b 789 147 771 224 789 147 b 831 308 789 147 807 224 l 914 615 b 939 756 928 668 935 708 l 1057 756 l 844 0 l 711 0 l 539 572 l 364 0 l 231 0 m 369 1001 l 497 1001 l 497 874 l 369 874 m 607 1001 l 733 1001 l 733 874 l 607 874 "},"ẁ":{"ha":1075,"x_min":0,"x_max":0,"o":"m 15 756 l 146 756 l 272 311 b 313 150 297 226 313 150 b 360 310 313 150 333 225 l 497 756 l 604 756 l 744 308 b 789 147 771 224 789 147 b 831 308 789 147 807 224 l 914 615 b 939 756 928 668 935 708 l 1057 756 l 844 0 l 711 0 l 539 572 l 364 0 l 231 0 m 471 1029 l 632 824 l 535 824 l 300 1029 "},"x":{"ha":668,"x_min":0,"x_max":0,"o":"m 263 374 l 4 756 l 153 756 l 342 479 l 464 650 b 525 756 493 692 508 714 l 665 756 l 404 394 l 669 0 l 521 0 l 328 289 l 196 103 b 136 0 171 68 151 40 l -3 0 "},"y":{"ha":706,"x_min":0,"x_max":0,"o":"m 140 -290 b 10 -258 97 -290 50 -279 l 35 -150 b 138 -189 65 -175 94 -189 b 265 -76 204 -189 239 -147 l 294 -1 l 8 756 l 144 756 l 308 313 b 354 156 339 229 354 156 b 417 311 354 156 385 228 l 536 622 b 575 756 556 674 564 703 l 699 756 l 372 -96 b 140 -290 324 -221 257 -290 "},"ý":{"ha":706,"x_min":0,"x_max":0,"o":"m 140 -290 b 10 -258 97 -290 50 -279 l 35 -150 b 138 -189 65 -175 94 -189 b 265 -76 204 -189 239 -147 l 294 -1 l 8 756 l 144 756 l 308 313 b 354 156 339 229 354 156 b 417 311 354 156 385 228 l 536 622 b 575 756 556 674 564 703 l 699 756 l 372 -96 b 140 -290 324 -221 257 -290 m 447 1029 l 618 1029 l 383 824 l 286 824 "},"ŷ":{"ha":706,"x_min":0,"x_max":0,"o":"m 140 -290 b 10 -258 97 -290 50 -279 l 35 -150 b 138 -189 65 -175 94 -189 b 265 -76 204 -189 239 -147 l 294 -1 l 8 756 l 144 756 l 308 313 b 354 156 339 229 354 156 b 417 311 354 156 385 228 l 536 622 b 575 756 556 674 564 703 l 699 756 l 372 -96 b 140 -290 324 -221 257 -290 m 317 1029 l 426 1029 l 611 824 l 507 824 l 371 944 l 236 824 l 131 824 "},"ÿ":{"ha":706,"x_min":0,"x_max":0,"o":"m 140 -290 b 10 -258 97 -290 50 -279 l 35 -150 b 138 -189 65 -175 94 -189 b 265 -76 204 -189 239 -147 l 294 -1 l 8 756 l 144 756 l 308 313 b 354 156 339 229 354 156 b 417 311 354 156 385 228 l 536 622 b 575 756 556 674 564 703 l 699 756 l 372 -96 b 140 -290 324 -221 257 -290 m 185 1001 l 313 1001 l 313 874 l 185 874 m 422 1001 l 549 1001 l 549 874 l 422 874 "},"ỳ":{"ha":706,"x_min":0,"x_max":0,"o":"m 140 -290 b 10 -258 97 -290 50 -279 l 35 -150 b 138 -189 65 -175 94 -189 b 265 -76 204 -189 239 -147 l 294 -1 l 8 756 l 144 756 l 308 313 b 354 156 339 229 354 156 b 417 311 354 156 385 228 l 536 622 b 575 756 556 674 564 703 l 699 756 l 372 -96 b 140 -290 324 -221 257 -290 m 286 1029 l 447 824 l 350 824 l 115 1029 "},"ȳ":{"ha":706,"x_min":0,"x_max":0,"o":"m 140 -290 b 10 -258 97 -290 50 -279 l 35 -150 b 138 -189 65 -175 94 -189 b 265 -76 204 -189 239 -147 l 294 -1 l 8 756 l 144 756 l 308 313 b 354 156 339 229 354 156 b 417 311 354 156 385 228 l 536 622 b 575 756 556 674 564 703 l 699 756 l 372 -96 b 140 -290 324 -221 257 -290 m 164 953 l 569 953 l 569 860 l 164 860 "},"ỹ":{"ha":706,"x_min":0,"x_max":0,"o":"m 140 -290 b 10 -258 97 -290 50 -279 l 35 -150 b 138 -189 65 -175 94 -189 b 265 -76 204 -189 239 -147 l 294 -1 l 8 756 l 144 756 l 308 313 b 354 156 339 229 354 156 b 417 311 354 156 385 228 l 536 622 b 575 756 556 674 564 703 l 699 756 l 372 -96 b 140 -290 324 -221 257 -290 m 138 865 b 268 1007 142 943 181 1007 b 475 926 364 1007 418 926 b 531 996 510 926 532 949 l 604 985 b 472 842 607 906 558 842 b 265 922 376 842 322 922 b 211 853 232 922 213 900 l 138 865 "},"z":{"ha":651,"x_min":0,"x_max":0,"o":"m 33 93 l 457 658 l 33 658 l 33 756 l 611 756 l 610 663 l 188 97 l 625 97 l 625 0 l 33 0 "},"ź":{"ha":651,"x_min":0,"x_max":0,"o":"m 33 93 l 457 658 l 33 658 l 33 756 l 611 756 l 610 663 l 188 97 l 625 97 l 625 0 l 33 0 m 406 1029 l 576 1029 l 342 824 l 244 824 "},"ž":{"ha":651,"x_min":0,"x_max":0,"o":"m 33 93 l 457 658 l 33 658 l 33 756 l 611 756 l 610 663 l 188 97 l 625 97 l 625 0 l 33 0 m 189 1029 l 325 908 l 460 1029 l 565 1029 l 379 824 l 269 824 l 85 1029 "},"ż":{"ha":651,"x_min":0,"x_max":0,"o":"m 33 93 l 457 658 l 33 658 l 33 756 l 611 756 l 610 663 l 188 97 l 625 97 l 625 0 l 33 0 m 256 1004 l 396 1004 l 396 871 l 256 871 "},"ﬁ":{"ha":700,"x_min":0,"x_max":0,"o":"m 10 756 l 131 756 l 131 843 b 297 1013 131 933 174 1013 b 410 992 343 1013 381 1004 l 424 888 b 324 918 389 908 360 918 b 257 843 274 918 257 889 l 257 756 l 400 756 l 400 658 l 257 658 l 257 181 b 264 0 257 121 258 61 l 131 0 l 131 658 l 10 658 m 482 1004 l 622 1004 l 622 871 l 482 871 m 490 756 l 615 756 l 615 181 b 622 0 615 121 617 61 l 490 0 "},"ﬂ":{"ha":700,"x_min":0,"x_max":0,"o":"m 10 756 l 131 756 l 131 843 b 297 1013 131 933 174 1013 b 410 992 343 1013 381 1004 l 424 888 b 324 918 389 908 360 918 b 257 843 274 918 257 889 l 257 756 l 400 756 l 400 658 l 257 658 l 257 181 b 264 0 257 121 258 61 l 131 0 l 131 658 l 10 658 m 489 993 l 614 993 l 614 181 b 621 0 614 121 615 61 l 489 0 "},"ª":{"ha":603,"x_min":0,"x_max":0,"o":"m 497 453 b 408 551 444 453 408 490 l 408 586 b 210 453 375 508 307 453 b 50 590 115 453 50 510 b 408 803 50 722 194 782 l 408 826 b 306 933 408 893 372 933 b 119 813 228 933 161 894 l 49 868 b 310 1008 115 964 210 1008 b 503 832 438 1008 503 939 l 503 556 b 529 524 503 535 511 524 b 568 535 542 524 551 525 l 557 465 b 497 453 536 456 518 453 m 151 604 b 233 531 151 560 185 531 b 408 711 318 531 408 599 l 408 740 b 151 604 264 726 151 690 "},"º":{"ha":589,"x_min":0,"x_max":0,"o":"m 294 453 b 39 732 132 453 39 579 b 294 1008 39 885 132 1008 b 551 732 456 1008 551 882 b 294 453 551 579 457 453 m 140 731 b 294 529 140 615 197 529 b 450 732 393 529 450 618 b 294 932 450 844 392 932 b 140 731 199 932 140 846 "},"μ":{"ha":811,"x_min":0,"x_max":0,"o":"m 208 250 b 351 85 208 143 254 85 b 608 406 469 85 608 217 l 608 756 l 733 756 l 733 181 b 740 0 733 121 735 61 l 608 0 l 608 211 b 317 -19 557 76 438 -19 b 199 7 271 -19 231 -10 l 199 -271 l 85 -271 l 85 200 b 83 233 83 211 83 222 l 83 756 l 208 756 l 208 250 "},"₀":{"ha":589,"x_min":0,"x_max":0,"o":"m 294 -296 b 39 39 118 -296 39 -140 b 297 375 39 219 117 375 b 551 39 474 375 551 218 b 294 -296 551 -140 472 -296 m 151 39 b 294 -210 151 -90 193 -210 b 440 39 399 -210 440 -90 b 297 288 440 168 400 288 b 151 39 193 288 151 168 "},"₁":{"ha":375,"x_min":0,"x_max":0,"o":"m 199 246 b 25 118 164 192 97 140 l 8 221 b 221 363 92 247 178 303 l 307 363 l 307 -283 l 199 -283 "},"₂":{"ha":536,"x_min":0,"x_max":0,"o":"m 35 -210 b 388 190 69 4 388 4 b 274 288 388 249 339 288 b 118 143 192 288 138 224 l 33 197 b 278 375 68 300 157 375 b 497 196 408 375 497 304 b 144 -203 497 -33 201 -37 l 493 -203 l 493 -283 l 35 -283 l 35 -210 "},"₃":{"ha":560,"x_min":0,"x_max":0,"o":"m 279 -296 b 19 -119 154 -296 53 -225 l 106 -67 b 279 -210 125 -147 185 -210 b 410 -93 356 -210 410 -162 b 251 19 410 -17 338 19 b 210 18 239 19 221 19 l 210 93 b 251 90 222 92 236 90 b 393 199 331 90 393 132 b 281 288 393 256 346 288 b 122 153 204 288 143 236 l 38 206 b 288 375 75 310 172 375 b 503 210 404 375 503 317 b 356 57 503 129 440 75 b 521 -100 451 43 521 -10 b 279 -296 521 -221 417 -296 "},"₄":{"ha":572,"x_min":0,"x_max":0,"o":"m 351 -126 l 13 -126 l 13 -60 l 356 363 l 458 363 l 458 -47 l 553 -47 l 553 -126 l 458 -126 l 458 -283 l 351 -283 m 351 -47 l 351 240 l 115 -47 "},"₅":{"ha":543,"x_min":0,"x_max":0,"o":"m 265 -296 b 21 -133 149 -296 57 -232 l 107 -78 b 265 -210 128 -156 181 -210 b 401 -64 349 -210 401 -146 b 269 71 401 18 349 71 b 128 -15 207 71 160 36 l 49 22 l 103 363 l 476 363 l 476 283 l 175 283 l 144 86 b 292 154 175 126 221 154 b 513 -62 428 154 513 69 b 265 -296 513 -203 410 -296 "},"₆":{"ha":581,"x_min":0,"x_max":0,"o":"m 288 -296 b 38 -15 133 -296 38 -194 b 318 375 38 219 146 375 b 539 229 424 375 503 315 l 457 165 b 313 288 438 238 389 288 b 151 61 215 288 164 197 b 318 143 186 113 244 143 b 540 -71 449 143 540 57 b 288 -296 540 -207 432 -296 m 149 -76 b 289 -212 150 -149 203 -212 b 431 -76 375 -212 431 -153 b 289 63 431 3 376 63 b 149 -76 201 63 149 1 "},"₇":{"ha":483,"x_min":0,"x_max":0,"o":"m 108 -283 b 374 278 108 -78 233 133 l 10 278 l 10 363 l 475 363 l 475 296 b 218 -283 326 133 218 -57 l 108 -283 "},"₈":{"ha":581,"x_min":0,"x_max":0,"o":"m 290 -296 b 36 -101 153 -296 36 -231 b 196 60 36 -15 107 40 b 63 207 114 75 63 129 b 290 375 63 318 171 375 b 518 207 411 375 518 319 b 386 60 518 128 463 74 b 546 -101 476 39 546 -15 b 290 -296 546 -231 428 -296 m 146 -96 b 290 -210 146 -168 210 -210 b 435 -96 371 -210 435 -168 b 290 17 435 -25 367 17 b 146 -96 213 17 146 -25 m 169 197 b 290 100 169 138 222 100 b 413 197 358 100 413 138 b 290 290 413 257 357 290 b 169 197 225 290 169 257 "},"₉":{"ha":581,"x_min":0,"x_max":0,"o":"m 293 375 b 543 94 447 375 543 274 b 263 -296 543 -140 435 -296 b 42 -150 157 -296 78 -236 l 124 -86 b 268 -208 143 -158 192 -208 b 429 18 365 -208 417 -118 b 263 -64 394 -33 336 -64 b 40 150 132 -64 40 22 b 293 375 40 286 149 375 m 150 156 b 292 17 150 76 204 17 b 432 156 379 17 432 78 b 292 292 431 228 378 292 b 150 156 206 292 150 232 "},"⁰":{"ha":589,"x_min":0,"x_max":0,"o":"m 294 404 b 39 739 118 404 39 560 b 297 1075 39 919 117 1075 b 551 739 474 1075 551 918 b 294 404 551 560 472 404 m 151 739 b 294 490 151 610 193 490 b 440 739 399 490 440 610 b 297 988 440 868 400 988 b 151 739 193 988 151 868 "},"¹":{"ha":375,"x_min":0,"x_max":0,"o":"m 199 946 b 25 818 164 892 97 840 l 8 921 b 221 1063 92 947 178 1003 l 307 1063 l 307 417 l 199 417 "},"²":{"ha":536,"x_min":0,"x_max":0,"o":"m 35 490 b 388 890 69 704 388 704 b 274 988 388 949 339 988 b 118 843 192 988 138 924 l 33 897 b 278 1075 68 1000 157 1075 b 497 896 408 1075 497 1004 b 144 497 497 667 201 663 l 493 497 l 493 417 l 35 417 l 35 490 "},"³":{"ha":560,"x_min":0,"x_max":0,"o":"m 279 404 b 19 581 154 404 53 475 l 106 633 b 279 490 125 553 185 490 b 410 607 356 490 410 538 b 251 719 410 683 338 719 b 210 718 239 719 221 719 l 210 793 b 251 790 222 792 236 790 b 393 899 331 790 393 832 b 281 988 393 956 346 988 b 122 853 204 988 143 936 l 38 906 b 288 1075 75 1010 172 1075 b 503 910 404 1075 503 1017 b 356 757 503 829 440 775 b 521 600 451 743 521 690 b 279 404 521 479 417 404 "},"⁴":{"ha":572,"x_min":0,"x_max":0,"o":"m 351 574 l 13 574 l 13 640 l 356 1063 l 458 1063 l 458 653 l 553 653 l 553 574 l 458 574 l 458 417 l 351 417 m 351 653 l 351 940 l 115 653 "},"⁵":{"ha":543,"x_min":0,"x_max":0,"o":"m 265 404 b 21 567 149 404 57 468 l 107 622 b 265 490 128 544 181 490 b 401 636 349 490 401 554 b 269 771 401 718 349 771 b 128 685 207 771 160 736 l 49 722 l 103 1063 l 476 1063 l 476 983 l 175 983 l 144 786 b 292 854 175 826 221 854 b 513 638 428 854 513 769 b 265 404 513 497 410 404 "},"⁶":{"ha":581,"x_min":0,"x_max":0,"o":"m 288 404 b 38 685 133 404 38 506 b 318 1075 38 919 146 1075 b 539 929 424 1075 503 1015 l 457 865 b 313 988 438 938 389 988 b 151 761 215 988 164 897 b 318 843 186 813 244 843 b 540 629 449 843 540 757 b 288 404 540 493 432 404 m 149 624 b 289 488 150 551 203 488 b 431 624 375 488 431 547 b 289 763 431 703 376 763 b 149 624 201 763 149 701 "},"⁷":{"ha":483,"x_min":0,"x_max":0,"o":"m 108 417 b 374 978 108 622 233 833 l 10 978 l 10 1063 l 475 1063 l 475 996 b 218 417 326 833 218 643 l 108 417 "},"⁸":{"ha":581,"x_min":0,"x_max":0,"o":"m 290 404 b 36 599 153 404 36 469 b 196 760 36 685 107 740 b 63 907 114 775 63 829 b 290 1075 63 1018 171 1075 b 518 907 411 1075 518 1019 b 386 760 518 828 463 774 b 546 599 476 739 546 685 b 290 404 546 469 428 404 m 146 604 b 290 490 146 532 210 490 b 435 604 371 490 435 532 b 290 717 435 675 367 717 b 146 604 213 717 146 675 m 169 897 b 290 800 169 838 222 800 b 413 897 358 800 413 838 b 290 990 413 957 357 990 b 169 897 225 990 169 957 "},"⁹":{"ha":581,"x_min":0,"x_max":0,"o":"m 293 1075 b 543 794 447 1075 543 974 b 263 404 543 560 435 404 b 42 550 157 404 78 464 l 124 614 b 268 492 143 542 192 492 b 429 718 365 492 417 582 b 263 636 394 667 336 636 b 40 850 132 636 40 722 b 293 1075 40 986 149 1075 m 150 856 b 292 717 150 776 204 717 b 432 856 379 717 432 778 b 292 992 431 928 378 992 b 150 856 206 992 150 932 "},"⁄":{"ha":421,"x_min":0,"x_max":0,"o":"m -217 53 l 560 997 l 635 940 l -147 -4 "},"½":{"ha":1299,"x_min":0,"x_max":0,"o":"m 201 882 b 28 754 167 828 100 776 l 11 857 b 224 999 94 883 181 939 l 310 999 l 310 353 l 201 353 m 954 997 l 1029 940 l 247 -4 l 178 53 m 793 481 b 1038 658 828 583 917 658 b 1257 479 1168 658 1257 588 b 904 81 1257 250 961 246 l 1253 81 l 1253 0 l 794 0 l 794 74 b 1147 474 829 288 1147 288 b 1033 571 1147 532 1099 571 b 878 426 951 571 897 507 l 793 481 "},"¼":{"ha":1217,"x_min":0,"x_max":0,"o":"m 201 882 b 28 754 167 828 100 776 l 11 857 b 224 999 94 883 181 939 l 310 999 l 310 353 l 201 353 m 950 997 l 1025 940 l 243 -4 l 174 53 m 647 224 l 990 646 l 1093 646 l 1093 236 l 1188 236 l 1188 157 l 1093 157 l 1093 0 l 986 0 l 986 157 l 647 157 m 986 236 l 986 524 l 750 236 "},"¾":{"ha":1371,"x_min":0,"x_max":0,"o":"m 290 340 b 31 517 165 340 64 411 l 117 569 b 290 426 136 489 196 426 b 421 543 367 426 421 474 b 263 656 421 619 349 656 b 221 654 250 656 232 656 l 221 729 b 263 726 233 728 247 726 b 404 835 342 726 404 768 b 292 924 404 892 357 924 b 133 789 215 924 154 872 l 49 842 b 299 1011 86 946 183 1011 b 514 846 415 1011 514 953 b 367 693 514 765 451 711 b 532 536 463 679 532 626 b 290 340 532 415 428 340 m 1099 997 l 1174 940 l 392 -4 l 322 53 m 790 224 l 1133 646 l 1236 646 l 1236 236 l 1331 236 l 1331 157 l 1236 157 l 1236 0 l 1129 0 l 1129 157 l 790 157 m 1129 236 l 1129 524 l 893 236 "},"⅛":{"ha":1343,"x_min":0,"x_max":0,"o":"m 215 882 b 42 754 181 828 114 776 l 25 857 b 238 999 108 883 194 939 l 324 999 l 324 353 l 215 353 m 969 997 l 1044 940 l 263 -4 l 193 53 m 804 182 b 964 343 804 268 875 324 b 831 490 882 358 831 413 b 1058 658 831 601 939 658 b 1286 490 1179 658 1286 603 b 1154 343 1286 411 1231 357 b 1314 182 1244 322 1314 268 b 1058 -12 1314 53 1196 -12 b 804 182 921 -12 804 53 m 914 188 b 1058 74 914 115 978 74 b 1203 188 1139 74 1203 115 b 1058 300 1203 258 1135 300 b 914 188 981 300 914 258 m 938 481 b 1058 383 938 421 990 383 b 1181 481 1126 383 1181 421 b 1058 574 1181 540 1125 574 b 938 481 993 574 938 540 "},"⅜":{"ha":1464,"x_min":0,"x_max":0,"o":"m 294 340 b 35 517 169 340 68 411 l 121 569 b 294 426 140 489 200 426 b 425 543 371 426 425 474 b 267 656 425 619 353 656 b 225 654 254 656 236 656 l 225 729 b 267 726 238 728 251 726 b 408 835 346 726 408 768 b 296 924 408 892 361 924 b 138 789 219 924 158 872 l 53 842 b 303 1011 90 946 188 1011 b 518 846 419 1011 518 953 b 371 693 518 765 456 711 b 536 536 467 679 536 626 b 294 340 536 415 432 340 m 1081 997 l 1156 940 l 374 -4 l 304 53 m 915 182 b 1075 343 915 268 986 324 b 942 490 993 358 942 413 b 1169 658 942 601 1050 658 b 1397 490 1290 658 1397 603 b 1265 343 1397 411 1342 357 b 1425 182 1356 322 1425 268 b 1169 -12 1425 53 1307 -12 b 915 182 1032 -12 915 53 m 1025 188 b 1169 74 1025 115 1089 74 b 1314 188 1250 74 1314 115 b 1169 300 1314 258 1246 300 b 1025 188 1092 300 1025 258 m 1049 481 b 1169 383 1049 421 1101 383 b 1292 481 1238 383 1292 421 b 1169 574 1292 540 1236 574 b 1049 481 1104 574 1049 540 "},"⅝":{"ha":1442,"x_min":0,"x_max":0,"o":"m 275 340 b 31 503 158 340 67 404 l 117 558 b 275 426 138 481 190 426 b 411 572 358 426 411 490 b 279 707 411 654 358 707 b 138 621 217 707 169 672 l 58 658 l 113 999 l 486 999 l 486 919 l 185 919 l 154 722 b 301 790 185 763 231 790 b 522 574 438 790 522 706 b 275 340 522 433 419 340 m 1069 997 l 1144 940 l 363 -4 l 293 53 m 903 182 b 1063 343 903 268 974 324 b 929 490 981 358 929 413 b 1157 658 929 601 1038 658 b 1385 490 1278 658 1385 603 b 1253 343 1385 411 1329 357 b 1413 182 1343 322 1413 268 b 1157 -12 1413 53 1294 -12 b 903 182 1019 -12 903 53 m 1013 188 b 1157 74 1013 115 1076 74 b 1301 188 1238 74 1301 115 b 1157 300 1301 258 1233 300 b 1013 188 1079 300 1013 258 m 1036 481 b 1157 383 1036 421 1089 383 b 1279 481 1225 383 1279 421 b 1157 574 1279 540 1224 574 b 1036 481 1092 574 1036 540 "},"⅞":{"ha":1301,"x_min":0,"x_max":0,"o":"m 122 353 b 388 914 122 558 247 769 l 24 914 l 24 999 l 489 999 l 489 932 b 232 353 340 769 232 579 l 122 353 m 918 997 l 993 940 l 211 -4 l 142 53 m 757 182 b 917 343 757 268 828 324 b 783 490 835 358 783 413 b 1011 658 783 601 892 658 b 1239 490 1132 658 1239 603 b 1107 343 1239 411 1183 357 b 1267 182 1197 322 1267 268 b 1011 -12 1267 53 1149 -12 b 757 182 874 -12 757 53 m 867 188 b 1011 74 867 115 931 74 b 1156 188 1092 74 1156 115 b 1011 300 1156 258 1088 300 b 867 188 933 300 867 258 m 890 481 b 1011 383 890 421 943 383 b 1133 481 1079 383 1133 421 b 1011 574 1133 540 1078 574 b 890 481 946 574 890 540 "}," ":{"ha":289,"x_min":0,"x_max":0,"o":""}," ":{"ha":165,"x_min":0,"x_max":0,"o":""},".":{"ha":260,"x_min":0,"x_max":0,"o":"m 61 138 l 199 138 l 199 0 l 61 0 "},",":{"ha":246,"x_min":0,"x_max":0,"o":"m 29 -149 l 139 0 l 56 0 l 56 138 l 193 138 l 193 0 b 110 -215 156 -72 128 -144 "},":":{"ha":279,"x_min":0,"x_max":0,"o":"m 71 138 l 208 138 l 208 0 l 71 0 m 71 668 l 208 668 l 208 531 l 71 531 "},";":{"ha":281,"x_min":0,"x_max":0,"o":"m 67 -149 l 176 0 l 93 0 l 93 138 l 231 138 l 231 0 b 147 -215 193 -72 165 -144 m 93 669 l 231 669 l 231 532 l 93 532 "},"…":{"ha":761,"x_min":0,"x_max":0,"o":"m 61 138 l 199 138 l 199 0 l 61 0 m 311 138 l 449 138 l 449 0 l 311 0 m 561 138 l 699 138 l 699 0 l 561 0 "},"!":{"ha":297,"x_min":0,"x_max":0,"o":"m 111 258 b 90 797 110 425 90 615 b 86 993 90 869 89 928 l 218 993 b 214 797 214 928 214 864 b 192 258 214 617 194 425 l 111 258 m 83 138 l 221 138 l 221 0 l 83 0 "},"¡":{"ha":282,"x_min":0,"x_max":0,"o":"m 186 436 b 207 -103 188 269 207 79 b 211 -299 207 -175 208 -233 l 79 -299 b 83 -103 83 -233 83 -169 b 106 436 83 78 103 269 l 186 436 m 76 694 l 214 694 l 214 557 l 76 557 "},"?":{"ha":692,"x_min":0,"x_max":0,"o":"m 314 232 b 65 424 167 232 65 304 b 522 803 65 689 522 618 b 375 915 522 871 460 915 b 121 738 258 915 168 842 l 33 817 b 376 1013 110 936 219 1013 b 650 803 531 1013 650 929 b 192 428 650 533 192 596 b 322 329 192 369 240 329 b 550 474 396 329 500 358 l 638 393 b 314 232 546 267 426 232 m 272 138 l 410 138 l 410 0 l 272 0 "},"¿":{"ha":683,"x_min":0,"x_max":0,"o":"m 374 461 b 622 269 521 461 622 389 b 165 -110 622 4 165 75 b 313 -222 165 -178 228 -222 b 567 -44 429 -222 519 -149 l 654 -124 b 311 -319 578 -243 468 -319 b 38 -110 157 -319 38 -236 b 496 265 38 160 496 97 b 365 364 496 324 447 364 b 138 219 292 364 188 335 l 50 300 b 374 461 142 426 261 461 m 278 693 l 415 693 l 415 556 l 278 556 "},"·":{"ha":279,"x_min":0,"x_max":0,"o":"m 71 556 l 208 556 l 208 418 l 71 418 "},"•":{"ha":453,"x_min":0,"x_max":0,"o":"m 100 561 l 353 561 l 353 307 l 100 307 "},"*":{"ha":563,"x_min":0,"x_max":0,"o":"m 240 636 b 264 733 244 681 264 733 b 178 674 264 733 215 699 l 110 626 l 56 708 l 142 746 b 238 774 182 763 238 774 b 142 814 238 774 182 796 l 54 849 l 108 932 l 176 885 b 251 819 213 860 251 819 b 240 922 251 819 243 878 l 232 993 l 333 993 l 325 922 b 300 825 319 878 300 825 b 385 885 300 825 349 861 l 454 935 l 508 853 l 424 815 b 328 789 383 799 328 789 b 424 749 328 789 383 767 l 511 713 l 457 629 l 388 678 b 313 743 351 701 313 743 b 325 640 313 743 321 685 l 333 568 l 232 568 l 240 636 "},"#":{"ha":1090,"x_min":0,"x_max":0,"o":"m 607 264 l 375 264 l 313 0 l 194 0 l 256 264 l 35 264 l 35 358 l 278 358 l 344 642 l 106 642 l 106 736 l 367 736 l 426 993 l 546 993 l 486 736 l 718 736 l 778 993 l 897 993 l 838 736 l 1057 736 l 1057 642 l 815 642 l 749 358 l 985 358 l 985 264 l 726 264 l 665 0 l 546 0 m 629 358 l 696 642 l 464 642 l 397 358 "},"/":{"ha":633,"x_min":0,"x_max":0,"o":"m 21 -139 l 522 1038 l 613 1000 l 115 -176 "},"\\":{"ha":632,"x_min":0,"x_max":0,"o":"m 21 1000 l 111 1038 l 611 -139 l 517 -176 "},"-":{"ha":472,"x_min":0,"x_max":0,"o":"m 69 500 l 403 500 l 403 404 l 69 404 "},"­":{"ha":472,"x_min":0,"x_max":0,"o":"m 69 500 l 403 500 l 403 404 l 69 404 "},"–":{"ha":763,"x_min":0,"x_max":0,"o":"m 71 500 l 693 500 l 693 404 l 71 404 "},"—":{"ha":1117,"x_min":0,"x_max":0,"o":"m 71 501 l 1046 501 l 1046 404 l 71 404 "},"_":{"ha":706,"x_min":0,"x_max":0,"o":"m 44 1 l 663 1 l 663 -87 l 44 -87 "},"(":{"ha":438,"x_min":0,"x_max":0,"o":"m 382 -217 b 39 428 154 -28 39 192 b 382 1063 39 660 154 874 l 440 1001 b 172 426 274 844 172 638 b 440 -156 172 210 272 0 l 382 -217 "},")":{"ha":438,"x_min":0,"x_max":0,"o":"m 56 1064 b 399 419 283 875 399 656 b 56 -215 399 188 283 -26 l -3 -154 b 265 421 164 3 265 210 b -3 1003 265 638 165 847 l 56 1064 "},"{":{"ha":453,"x_min":0,"x_max":0,"o":"m 331 -225 b 143 -62 219 -225 143 -167 b 188 265 143 64 188 161 b 40 374 188 358 114 374 l -6 374 l -6 464 l 40 464 b 188 574 114 464 188 479 b 143 900 188 660 143 776 b 331 1063 143 1004 221 1063 b 436 1049 367 1063 396 1060 l 426 960 b 347 974 400 971 376 974 b 265 894 293 974 265 946 b 314 571 265 793 314 657 b 168 419 314 467 242 432 b 314 267 242 406 314 371 b 265 -57 314 165 265 47 b 347 -136 265 -108 293 -136 b 426 -122 378 -136 401 -132 l 436 -211 b 331 -225 397 -224 365 -225 "},"}":{"ha":456,"x_min":0,"x_max":0,"o":"m 122 1063 b 310 900 233 1063 310 1004 b 265 572 310 774 265 676 b 413 464 265 479 339 464 l 458 464 l 458 374 l 413 374 b 265 264 339 374 265 358 b 310 -62 265 178 310 61 b 122 -225 310 -167 232 -225 b 17 -211 86 -225 57 -222 l 26 -122 b 106 -136 53 -133 76 -136 b 188 -57 160 -136 188 -108 b 139 267 188 44 139 181 b 285 419 139 371 211 406 b 139 571 211 432 139 467 b 188 894 139 672 188 790 b 106 974 188 946 160 974 b 26 960 75 974 51 969 l 17 1049 b 122 1063 56 1061 88 1063 "},"[":{"ha":421,"x_min":0,"x_max":0,"o":"m 94 1049 l 406 1049 l 406 960 l 221 960 l 221 -112 l 406 -112 l 406 -201 l 94 -201 "},"]":{"ha":421,"x_min":0,"x_max":0,"o":"m 326 -201 l 15 -201 l 15 -112 l 200 -112 l 200 960 l 15 960 l 15 1049 l 326 1049 "},"‚":{"ha":246,"x_min":0,"x_max":0,"o":"m 31 -149 l 140 0 l 57 0 l 57 138 l 194 138 l 194 0 b 111 -215 157 -72 129 -144 "},"„":{"ha":481,"x_min":0,"x_max":0,"o":"m 264 -149 l 374 0 l 290 0 l 290 138 l 428 138 l 428 0 b 344 -215 390 -72 363 -144 m 139 0 l 56 0 l 56 138 l 193 138 l 193 0 b 110 -215 156 -72 128 -144 l 29 -149 "},"“":{"ha":493,"x_min":0,"x_max":0,"o":"m 215 944 l 106 796 l 189 796 l 189 658 l 51 658 l 51 796 b 135 1011 89 868 117 940 m 286 796 b 369 1011 324 868 351 940 l 450 944 l 340 796 l 424 796 l 424 658 l 286 658 "},"”":{"ha":481,"x_min":0,"x_max":0,"o":"m 274 708 l 383 857 l 300 857 l 300 994 l 438 994 l 438 857 b 354 642 400 785 372 713 m 149 857 l 65 857 l 65 994 l 203 994 l 203 857 b 119 642 165 785 138 713 l 39 708 "},"‘":{"ha":258,"x_min":0,"x_max":0,"o":"m 215 944 l 106 796 l 189 796 l 189 658 l 51 658 l 51 796 b 135 1011 89 868 117 940 "},"’":{"ha":246,"x_min":0,"x_max":0,"o":"m 42 707 l 151 856 l 68 856 l 68 993 l 206 993 l 206 856 b 122 640 168 783 140 711 "},"«":{"ha":719,"x_min":0,"x_max":0,"o":"m 649 496 l 575 443 b 435 356 501 392 435 356 b 574 267 435 356 501 318 l 649 213 l 649 96 l 351 310 l 351 399 l 649 614 m 40 399 l 338 614 l 338 496 l 263 443 b 124 356 190 392 124 356 b 263 267 124 356 190 318 l 338 213 l 338 96 l 40 310 "},"»":{"ha":719,"x_min":0,"x_max":0,"o":"m 368 399 l 368 310 l 71 96 l 71 213 l 146 267 b 285 356 218 318 285 356 b 144 443 285 356 218 392 l 71 496 l 71 614 m 382 213 l 457 267 b 596 356 531 318 596 356 b 457 443 596 356 529 392 l 382 496 l 382 614 l 679 399 l 679 310 l 382 96 "},"‹":{"ha":469,"x_min":0,"x_max":0,"o":"m 394 496 l 285 432 b 139 356 208 388 139 356 b 285 278 139 356 208 322 l 394 213 l 394 96 l 39 310 l 39 399 l 394 614 "},"›":{"ha":469,"x_min":0,"x_max":0,"o":"m 432 399 l 432 310 l 75 96 l 75 213 l 186 278 b 332 356 263 322 332 356 b 185 432 332 356 261 388 l 75 496 l 75 614 "},"\"":{"ha":429,"x_min":0,"x_max":0,"o":"m 63 993 l 186 993 b 169 683 174 907 169 799 l 69 683 m 381 993 b 364 683 368 907 364 799 l 264 683 l 257 993 "},"'":{"ha":238,"x_min":0,"x_max":0,"o":"m 61 993 l 185 993 b 168 683 172 907 168 799 l 68 683 "},"ƒ":{"ha":708,"x_min":0,"x_max":0,"o":"m 35 132 b 156 88 71 106 114 88 b 238 172 199 88 226 104 l 279 447 l 50 447 l 50 547 l 294 547 l 296 557 l 342 851 b 528 1013 356 947 400 1013 b 664 986 574 1013 633 1000 l 672 861 b 551 906 638 886 593 906 b 471 821 510 906 481 889 l 428 547 l 657 547 l 657 447 l 413 447 l 411 436 l 367 142 b 178 -19 353 49 310 -19 b 44 7 133 -19 75 -7 l 35 132 "},"฿":{"ha":857,"x_min":0,"x_max":0,"o":"m 96 922 l 376 922 l 376 1076 l 479 1076 l 479 922 l 496 922 b 804 703 665 922 804 851 b 576 479 804 578 706 506 b 831 263 714 461 831 404 b 489 0 831 92 678 0 l 479 0 l 479 -144 l 376 -144 l 376 0 l 96 0 m 376 104 l 376 425 l 226 425 l 226 104 m 376 528 l 376 819 l 226 819 l 226 528 m 479 104 b 689 269 599 106 689 165 b 479 425 689 371 600 422 l 479 104 m 479 528 b 663 686 589 535 663 597 b 479 819 663 778 583 818 l 479 528 "},"@":{"ha":1301,"x_min":0,"x_max":0,"o":"m 693 -242 b 39 381 293 -242 39 13 b 733 1026 39 767 324 1026 b 1274 656 1015 1026 1274 889 b 939 428 1274 474 1111 443 l 939 192 b 974 150 939 164 953 150 b 1024 167 992 150 1007 156 l 1010 82 b 933 64 985 69 961 64 b 833 178 863 64 833 117 l 831 233 b 593 64 790 129 710 64 b 393 239 471 64 393 133 b 828 499 393 400 564 468 l 828 538 b 706 682 828 631 785 682 b 483 522 618 682 542 632 l 400 592 b 714 775 490 726 599 775 b 939 549 853 775 939 696 l 939 510 b 1167 654 1069 522 1167 543 b 729 943 1167 836 956 943 b 147 379 385 943 147 714 b 693 -156 147 65 358 -156 b 1218 43 886 -156 1068 -108 l 1247 -50 b 693 -242 1092 -181 911 -242 m 511 249 b 619 153 511 190 553 153 b 828 415 738 153 828 257 l 828 417 b 511 249 638 396 511 346 "},"&":{"ha":858,"x_min":0,"x_max":0,"o":"m 731 0 b 665 160 719 60 697 113 b 342 -19 597 50 493 -19 b 35 246 171 -19 35 79 b 257 536 35 382 117 476 b 149 767 193 603 149 675 b 410 1013 149 904 254 1013 b 657 790 560 1013 657 929 b 439 529 657 683 585 596 b 633 372 499 479 568 429 b 649 556 644 428 650 490 l 772 497 b 724 282 763 421 747 347 b 864 0 792 206 846 114 l 731 0 m 168 257 b 354 85 168 150 243 85 b 593 250 464 85 544 149 b 324 475 511 333 408 403 b 168 257 233 421 168 353 m 276 772 b 371 589 276 704 314 646 b 533 779 468 633 533 693 b 408 908 533 858 489 908 b 276 772 332 908 276 853 "},"¶":{"ha":776,"x_min":0,"x_max":0,"o":"m 567 993 l 667 993 l 667 -90 b 674 -271 667 -150 668 -210 l 567 -271 m 28 693 b 350 993 28 864 160 993 l 449 993 l 449 -271 l 350 -271 l 350 417 b 28 693 160 417 28 528 "},"§":{"ha":831,"x_min":0,"x_max":0,"o":"m 429 -292 b 32 -67 256 -292 124 -214 l 132 18 b 435 -193 193 -143 319 -193 b 617 -50 538 -193 617 -140 b 76 390 617 161 76 85 b 235 600 76 490 151 565 b 111 790 164 642 111 699 b 401 1013 111 924 228 1013 b 767 818 542 1013 685 953 l 669 738 b 397 915 626 850 524 915 b 240 799 304 915 240 869 b 786 357 240 592 786 667 b 632 149 786 253 715 186 b 747 -40 700 108 747 51 b 429 -292 747 -199 604 -292 m 208 406 b 535 194 208 281 385 253 b 656 343 603 217 656 269 b 339 553 656 465 488 497 b 208 406 274 533 208 482 "},"©":{"ha":1299,"x_min":0,"x_max":0,"o":"m 650 -125 b 61 443 304 -125 61 110 b 650 1010 61 776 304 1010 b 1238 443 996 1010 1238 776 b 650 -125 1238 110 996 -125 m 165 443 b 650 -35 165 163 365 -35 b 1135 443 933 -35 1135 163 b 650 919 1135 724 933 919 b 165 443 365 919 165 724 m 375 433 b 658 765 375 610 482 765 b 904 582 776 765 868 703 l 814 519 b 658 676 794 617 746 676 b 489 436 543 676 489 553 b 658 210 489 317 533 210 b 825 360 746 210 804 278 l 914 297 b 658 121 861 197 779 121 b 375 433 478 121 375 257 "},"®":{"ha":804,"x_min":0,"x_max":0,"o":"m 403 385 b 47 719 194 385 47 524 b 403 1053 47 915 194 1053 b 757 719 610 1053 757 915 b 403 385 757 524 610 385 m 121 719 b 403 447 121 560 238 447 b 685 719 568 447 685 560 b 403 990 685 878 568 990 b 121 719 238 990 121 878 m 282 893 l 419 893 b 550 803 497 893 550 860 b 464 717 550 751 508 724 b 538 643 510 710 535 688 b 551 546 539 601 540 556 l 481 546 b 469 631 472 563 471 594 b 403 690 468 675 447 690 l 349 690 l 349 546 l 282 546 m 415 743 b 478 796 456 743 478 767 b 415 842 478 825 453 842 l 349 842 l 349 743 "},"™":{"ha":1210,"x_min":0,"x_max":0,"o":"m 203 915 l 29 915 l 29 992 l 474 992 l 474 915 l 300 915 l 300 446 l 203 446 m 565 992 l 668 992 l 822 610 l 981 992 l 1082 992 l 1138 446 l 1042 446 l 1004 846 l 849 461 l 781 461 l 636 850 l 606 558 b 603 446 603 525 599 488 l 508 446 "},"°":{"ha":479,"x_min":0,"x_max":0,"o":"m 240 622 b 38 818 121 622 38 703 b 240 1013 38 932 121 1013 b 443 818 358 1013 443 932 b 240 622 443 703 358 622 m 118 818 b 240 697 118 747 169 697 b 360 818 311 697 360 747 b 240 939 360 888 311 939 b 118 818 169 939 118 888 "},"|":{"ha":285,"x_min":0,"x_max":0,"o":"m 94 993 l 190 993 l 190 -271 l 94 -271 "},"¦":{"ha":285,"x_min":0,"x_max":0,"o":"m 94 993 l 190 993 l 190 535 l 94 535 m 94 188 l 190 188 l 190 -271 l 94 -271 "},"†":{"ha":563,"x_min":0,"x_max":0,"o":"m 233 749 l 32 749 l 32 831 l 233 831 l 233 993 l 329 993 l 329 831 l 529 831 l 529 749 l 329 749 l 329 340 l 233 340 "},"‡":{"ha":629,"x_min":0,"x_max":0,"o":"m 267 503 l 65 503 l 65 585 l 267 585 l 267 749 l 65 749 l 65 831 l 267 831 l 267 993 l 363 993 l 363 831 l 563 831 l 563 749 l 363 749 l 363 585 l 563 585 l 563 503 l 363 503 l 363 340 l 267 340 "},"₿":{"ha":893,"x_min":0,"x_max":0,"o":"m 103 922 l 282 922 l 282 1090 l 386 1090 l 386 922 l 467 922 l 467 1090 l 571 1090 l 571 918 b 811 703 708 901 811 831 b 583 479 811 578 711 506 b 838 263 721 461 838 404 b 571 6 838 115 724 26 l 571 -158 l 467 -158 l 467 0 l 386 0 l 386 -158 l 282 -158 l 282 0 l 103 0 m 483 104 b 697 269 604 104 697 164 b 472 425 697 374 601 425 l 233 425 l 233 104 m 465 528 b 669 686 588 528 669 592 b 478 819 669 779 586 819 l 233 819 l 233 528 "},"¢":{"ha":772,"x_min":0,"x_max":0,"o":"m 356 -17 b 49 374 172 7 49 163 b 356 771 49 589 172 746 l 356 913 l 460 913 l 460 772 b 718 544 589 756 681 674 l 613 478 b 460 671 590 579 540 650 l 460 85 b 624 271 547 107 603 186 l 731 201 b 460 -15 672 92 589 4 l 460 -154 l 356 -154 m 182 374 b 356 85 182 222 250 111 l 356 671 b 182 374 251 643 182 529 "},"¤":{"ha":776,"x_min":0,"x_max":0,"o":"m 388 139 b 217 186 322 139 264 156 l 121 94 l 54 160 l 150 250 b 101 407 119 293 101 347 b 154 569 101 469 121 525 l 54 663 l 121 728 l 222 631 b 388 675 268 660 324 675 b 554 631 451 675 508 658 l 657 728 l 724 663 l 622 567 b 674 407 656 524 674 469 b 626 251 674 347 657 294 l 724 160 l 657 94 l 560 188 b 388 139 513 157 454 139 m 203 407 b 388 232 203 306 276 232 b 572 407 499 232 572 306 b 388 582 572 508 499 582 b 203 407 276 582 203 508 "},"$":{"ha":881,"x_min":0,"x_max":0,"o":"m 397 -12 b 50 231 244 8 124 90 l 156 306 b 397 96 201 181 296 118 l 397 438 b 99 711 249 488 99 549 b 397 951 99 853 232 946 l 397 1049 l 500 1049 l 500 946 b 806 743 632 926 736 863 l 701 669 b 500 838 663 761 590 817 l 500 538 b 824 251 656 486 824 426 b 500 -18 824 79 672 -11 l 500 -118 l 397 -118 m 238 722 b 397 572 238 647 307 607 l 397 846 b 238 722 306 840 238 794 m 500 86 b 688 238 601 92 688 143 b 500 403 688 322 604 365 l 500 86 "},"€":{"ha":1097,"x_min":0,"x_max":0,"o":"m 640 -19 b 179 357 399 -19 226 135 l 25 357 l 49 454 l 167 454 l 167 482 b 168 528 167 497 167 513 l 65 528 l 88 625 l 181 625 b 640 1013 229 854 396 1013 b 1036 719 826 1013 975 911 l 919 643 b 640 907 886 811 785 907 b 329 625 478 907 368 790 l 747 625 l 725 528 l 314 528 b 313 482 313 513 313 497 l 313 454 l 708 454 l 685 357 l 326 357 b 640 86 365 197 479 86 b 935 338 789 86 893 186 l 1050 264 b 640 -19 967 86 829 -19 "},"₹":{"ha":796,"x_min":0,"x_max":0,"o":"m 68 533 l 308 533 b 513 667 413 533 490 585 l 65 667 l 65 764 l 514 764 b 315 894 493 844 415 894 l 65 894 l 65 993 l 763 993 l 763 894 l 582 894 b 647 764 617 858 639 814 l 763 764 l 763 667 l 646 667 b 307 435 619 525 483 435 l 238 435 l 658 0 l 492 0 l 68 435 "},"£":{"ha":879,"x_min":0,"x_max":0,"o":"m 846 200 b 583 -19 821 79 731 -19 b 128 -15 411 -19 351 65 l 81 60 b 267 390 206 189 267 283 b 265 410 267 397 267 403 l 42 410 l 42 508 l 229 508 b 114 760 185 581 114 642 b 419 1013 114 911 240 1013 b 783 751 603 1013 731 907 l 679 678 b 422 907 642 815 560 907 b 247 757 317 907 247 843 b 376 508 247 650 335 604 l 643 508 l 643 410 l 397 410 l 397 400 b 246 107 397 292 338 193 b 557 86 381 129 472 86 b 740 274 685 86 736 201 l 846 200 "},"¥":{"ha":854,"x_min":0,"x_max":0,"o":"m 363 238 l 133 238 l 133 336 l 363 336 l 363 400 l 133 400 l 133 497 l 311 497 l 22 993 l 174 993 l 367 660 b 439 514 411 583 439 514 b 521 660 439 514 476 582 l 633 853 b 692 993 663 906 676 938 l 832 993 l 549 497 l 726 497 l 726 400 l 499 400 l 499 336 l 726 336 l 726 238 l 499 238 l 499 0 l 363 0 "},"+":{"ha":797,"x_min":0,"x_max":0,"o":"m 346 360 l 68 360 l 68 461 l 346 461 l 346 721 l 451 721 l 451 461 l 729 461 l 729 360 l 451 360 l 451 106 l 346 106 "},"−":{"ha":797,"x_min":0,"x_max":0,"o":"m 81 461 l 718 461 l 718 360 l 81 360 "},"×":{"ha":797,"x_min":0,"x_max":0,"o":"m 399 335 l 174 133 l 101 206 l 322 404 l 101 601 l 174 675 l 399 472 l 624 675 l 696 601 l 475 404 l 696 206 l 624 133 "},"÷":{"ha":797,"x_min":0,"x_max":0,"o":"m 331 253 l 468 253 l 468 115 l 331 115 m 81 461 l 718 461 l 718 360 l 81 360 m 331 706 l 468 706 l 468 568 l 331 568 "},"=":{"ha":797,"x_min":0,"x_max":0,"o":"m 93 581 l 703 581 l 703 482 l 93 482 m 93 346 l 703 346 l 703 247 l 93 247 "},"≠":{"ha":797,"x_min":0,"x_max":0,"o":"m 153 142 l 226 247 l 93 247 l 93 346 l 294 346 l 389 482 l 93 482 l 93 581 l 458 581 l 571 743 l 643 690 l 567 581 l 703 581 l 703 482 l 499 482 l 404 346 l 703 346 l 703 247 l 336 247 l 226 89 "},">":{"ha":797,"x_min":0,"x_max":0,"o":"m 64 122 l 615 374 l 64 625 l 64 738 l 743 422 l 743 325 l 64 10 "},"<":{"ha":797,"x_min":0,"x_max":0,"o":"m 733 625 l 182 375 l 733 124 l 733 10 l 56 326 l 56 422 l 733 739 "},"≥":{"ha":797,"x_min":0,"x_max":0,"o":"m 61 264 l 615 478 l 61 678 l 61 775 l 740 524 l 740 432 l 61 167 m 60 92 l 738 92 l 738 0 l 60 0 "},"≤":{"ha":797,"x_min":0,"x_max":0,"o":"m 57 432 l 57 524 l 736 775 l 736 678 l 182 478 l 736 264 l 736 167 m 58 92 l 736 92 l 736 0 l 58 0 "},"±":{"ha":776,"x_min":0,"x_max":0,"o":"m 69 97 l 707 97 l 707 -4 l 69 -4 m 69 485 l 335 485 l 335 721 l 442 721 l 442 485 l 706 485 l 706 382 l 442 382 l 442 146 l 335 146 l 335 382 l 69 382 "},"¬":{"ha":797,"x_min":0,"x_max":0,"o":"m 614 360 l 79 360 l 79 461 l 717 461 l 717 360 l 715 360 l 715 182 l 614 182 "},"~":{"ha":797,"x_min":0,"x_max":0,"o":"m 544 324 b 256 418 415 324 342 418 b 181 338 206 418 181 385 l 90 363 b 254 508 90 439 147 508 b 542 414 383 508 456 414 b 618 494 592 414 618 446 l 708 469 b 544 324 708 394 653 324 "},"^":{"ha":797,"x_min":0,"x_max":0,"o":"m 617 417 l 399 883 l 179 417 l 64 417 l 350 1011 l 447 1011 l 733 417 "},"%":{"ha":1110,"x_min":0,"x_max":0,"o":"m 278 525 b 33 769 131 525 33 631 b 278 1013 33 908 131 1013 b 517 771 419 1013 517 910 b 278 525 517 631 421 525 m 910 997 l 985 940 l 203 -4 l 133 53 m 142 771 b 276 607 142 685 186 607 b 413 771 365 607 413 685 b 278 931 413 856 365 931 b 142 771 189 931 142 856 m 592 225 b 835 468 592 364 689 468 b 1075 226 976 468 1075 365 b 835 -19 1075 86 978 -19 b 592 225 689 -19 592 86 m 696 226 b 833 61 696 139 742 61 b 972 226 924 61 972 140 b 835 388 972 311 924 388 b 696 226 744 388 696 313 "},"‰":{"ha":1647,"x_min":0,"x_max":0,"o":"m 278 525 b 33 769 131 525 33 631 b 278 1013 33 908 131 1013 b 517 771 419 1013 517 910 b 278 525 517 631 421 525 m 910 997 l 985 940 l 203 -4 l 133 53 m 142 771 b 276 607 142 685 186 607 b 413 771 365 607 413 685 b 278 931 413 856 365 931 b 142 771 189 931 142 856 m 592 225 b 835 468 592 364 689 468 b 1075 226 976 468 1075 365 b 835 -19 1075 86 978 -19 b 592 225 689 -19 592 86 m 696 226 b 833 61 696 139 742 61 b 972 226 924 61 972 140 b 835 388 972 311 924 388 b 696 226 744 388 696 313 m 1128 225 b 1372 468 1128 364 1226 468 b 1613 226 1515 468 1613 365 b 1372 -19 1613 86 1517 -19 b 1128 225 1225 -19 1128 86 m 1233 226 b 1371 61 1233 139 1279 61 b 1508 226 1460 61 1508 140 b 1372 388 1508 311 1460 388 b 1233 226 1282 388 1233 313 "},"↑":{"ha":908,"x_min":0,"x_max":0,"o":"m 22 467 b 454 876 175 599 315 732 b 886 467 586 739 731 600 l 807 388 l 621 565 b 511 686 557 628 511 686 b 510 519 511 686 510 608 l 510 0 l 399 0 l 399 518 b 408 682 399 607 408 682 l 288 567 l 101 388 l 22 467 "},"↗":{"ha":821,"x_min":0,"x_max":0,"o":"m 126 757 b 746 756 338 746 538 747 b 746 175 738 567 736 372 l 635 176 l 638 418 b 650 581 639 507 650 581 b 526 468 650 581 592 529 l 125 96 l 46 175 l 447 547 b 574 650 513 607 574 650 b 407 649 574 650 496 650 l 126 644 l 126 757 "},"→":{"ha":996,"x_min":0,"x_max":0,"o":"m 532 832 b 961 421 674 682 811 551 b 532 10 803 282 665 151 l 453 89 l 643 261 b 771 363 708 321 771 363 b 603 365 771 363 692 365 l 44 365 l 44 476 l 603 476 b 765 465 692 476 765 465 b 643 579 765 465 708 519 l 453 753 l 532 832 "},"↘":{"ha":819,"x_min":0,"x_max":0,"o":"m 744 581 b 744 1 735 379 736 193 b 125 -1 539 8 335 10 l 125 111 l 406 107 b 568 94 494 106 568 94 b 447 208 568 94 513 149 l 43 579 l 124 658 l 525 289 b 639 169 592 228 639 169 l 636 338 l 632 579 l 744 581 "},"↓":{"ha":906,"x_min":0,"x_max":0,"o":"m 885 388 b 453 -22 729 253 589 119 b 21 388 314 122 176 253 l 101 467 l 286 289 b 396 168 350 226 396 168 b 397 335 396 168 397 246 l 397 854 l 508 854 l 508 336 b 499 172 508 247 499 172 l 619 288 l 806 467 l 885 388 "},"↙":{"ha":819,"x_min":0,"x_max":0,"o":"m 694 -1 b 76 0 482 10 278 8 b 75 581 83 199 83 385 l 186 579 l 183 338 b 169 175 182 249 169 175 b 293 288 169 175 228 226 l 696 660 l 775 581 l 374 208 b 246 106 308 149 246 106 b 414 107 246 106 325 106 l 693 111 l 694 -1 "},"←":{"ha":999,"x_min":0,"x_max":0,"o":"m 465 10 b 36 419 325 160 189 288 b 465 831 190 556 326 685 l 544 751 l 354 579 b 226 478 289 519 226 478 b 394 476 226 478 306 476 l 953 476 l 953 364 l 394 364 b 232 375 306 364 232 375 b 354 261 232 375 289 321 l 544 89 l 465 10 "},"↖":{"ha":822,"x_min":0,"x_max":0,"o":"m 75 175 b 76 754 86 375 85 553 b 696 756 275 747 485 746 l 694 644 l 414 647 b 251 661 325 649 251 661 l 374 546 l 776 175 l 697 96 l 294 467 b 182 585 229 528 182 585 b 183 418 182 585 182 507 l 188 176 l 75 175 "},"↔":{"ha":1372,"x_min":0,"x_max":0,"o":"m 457 10 b 33 419 318 157 181 289 b 457 831 185 556 319 683 l 536 751 l 350 581 b 224 478 285 521 224 478 b 390 476 224 478 301 476 l 981 476 b 1144 465 1069 476 1144 465 l 1022 581 l 836 751 l 915 831 b 1340 421 1051 686 1185 558 b 915 10 1194 292 1054 157 l 836 89 l 1022 260 b 1149 363 1088 319 1149 363 b 982 364 1149 363 1071 364 l 392 364 b 228 375 303 364 228 375 l 350 260 l 536 89 l 457 10 "},"↕":{"ha":932,"x_min":0,"x_max":0,"o":"m 899 192 b 465 -218 743 57 606 -74 b 35 192 313 -60 183 63 l 114 269 l 299 93 b 408 -28 363 31 408 -28 b 410 139 408 -28 410 50 l 410 690 b 419 853 410 779 419 853 b 299 738 419 853 363 800 l 114 560 l 35 639 b 467 1047 188 772 326 906 b 899 639 601 907 743 772 l 818 560 l 633 738 b 524 858 569 799 524 858 b 522 692 524 858 522 781 l 522 140 b 511 -24 522 51 511 -24 b 633 92 511 -24 569 31 l 818 269 l 899 192 "},"̈":{"ha":0,"x_min":0,"x_max":0,"o":"m 332 1001 l 458 1001 l 458 874 l 332 874 m 94 1001 l 222 1001 l 222 874 l 94 874 "},"̇":{"ha":0,"x_min":0,"x_max":0,"o":"m 75 1004 l 215 1004 l 215 871 l 75 871 "},"̀":{"ha":0,"x_min":0,"x_max":0,"o":"m 229 824 l -6 1029 l 165 1029 l 326 824 "},"́":{"ha":0,"x_min":0,"x_max":0,"o":"m 265 1029 l 436 1029 l 201 824 l 104 824 "},"̋":{"ha":0,"x_min":0,"x_max":0,"o":"m 254 1025 l 411 1025 l 192 824 l 99 824 m 494 1025 l 651 1025 l 432 824 l 338 824 "},"̂":{"ha":0,"x_min":0,"x_max":0,"o":"m 478 824 l 374 824 l 238 944 l 103 824 l -3 824 l 183 1029 l 293 1029 "},"̌":{"ha":0,"x_min":0,"x_max":0,"o":"m 51 1029 l 156 1029 l 292 908 l 426 1029 l 532 1029 l 346 824 l 236 824 "},"̆":{"ha":0,"x_min":0,"x_max":0,"o":"m 239 824 b 51 1029 115 824 47 911 l 138 1029 b 239 908 140 971 163 908 b 342 1029 318 908 340 971 l 428 1029 b 239 824 431 911 364 824 "},"̊":{"ha":0,"x_min":0,"x_max":0,"o":"m 208 828 b 51 961 117 828 51 882 b 208 1092 51 1038 117 1092 b 365 961 300 1092 365 1038 b 208 828 365 882 300 828 m 129 961 b 208 886 129 918 160 886 b 289 961 257 886 289 918 b 208 1033 289 1003 257 1033 b 129 961 160 1033 129 1003 "},"̃":{"ha":0,"x_min":0,"x_max":0,"o":"m 386 842 b 179 922 290 842 236 922 b 125 853 146 922 126 900 l 51 865 b 182 1007 56 943 94 1007 b 389 926 278 1007 332 926 b 444 996 424 926 446 949 l 518 985 b 386 842 521 906 472 842 "},"̄":{"ha":0,"x_min":0,"x_max":0,"o":"m 58 953 l 464 953 l 464 860 l 58 860 "},"̒":{"ha":0,"x_min":0,"x_max":0,"o":"m 165 742 l 54 742 b 93 1001 69 810 83 910 l 179 1001 "},"̦":{"ha":0,"x_min":0,"x_max":0,"o":"m 65 993 l 176 993 b 138 733 161 925 147 825 l 51 733 "},"̧":{"ha":0,"x_min":0,"x_max":0,"o":"m 197 -281 b 67 -254 156 -281 106 -271 l 58 -172 b 197 -210 108 -197 149 -210 b 288 -168 233 -210 288 -206 b 133 -108 288 -139 244 -118 l 193 0 l 288 0 l 247 -68 b 381 -168 328 -78 381 -114 b 197 -281 381 -239 303 -281 "},"̨":{"ha":0,"x_min":0,"x_max":0,"o":"m 201 -274 b 71 -172 124 -274 71 -236 b 210 0 71 -112 115 -61 l 283 0 b 156 -161 197 -71 156 -115 b 211 -208 156 -190 176 -208 b 290 -179 244 -208 268 -197 l 311 -244 b 201 -274 281 -262 240 -274 "},"¨":{"ha":539,"x_min":0,"x_max":0,"o":"m 336 921 l 468 921 l 468 793 l 336 793 m 79 921 l 213 921 l 213 793 l 79 793 "},"˙":{"ha":299,"x_min":0,"x_max":0,"o":"m 76 1004 l 217 1004 l 217 871 l 76 871 "},"`":{"ha":424,"x_min":0,"x_max":0,"o":"m 233 824 l -1 1029 l 169 1029 l 331 824 "},"´":{"ha":426,"x_min":0,"x_max":0,"o":"m 261 1029 l 432 1029 l 197 824 l 100 824 "},"˝":{"ha":665,"x_min":0,"x_max":0,"o":"m 250 1025 l 407 1025 l 188 824 l 94 824 m 490 1025 l 647 1025 l 428 824 l 333 824 "},"ˆ":{"ha":526,"x_min":0,"x_max":0,"o":"m 482 824 l 378 824 l 242 944 l 107 824 l 1 824 l 188 1029 l 297 1029 "},"ˇ":{"ha":528,"x_min":0,"x_max":0,"o":"m 49 1029 l 153 1029 l 289 908 l 424 1029 l 529 1029 l 343 824 l 233 824 "},"˘":{"ha":490,"x_min":0,"x_max":0,"o":"m 246 775 b 58 953 135 775 64 851 l 113 967 b 246 867 133 900 175 867 b 379 967 317 867 360 901 l 432 953 b 246 775 426 850 357 775 "},"˚":{"ha":417,"x_min":0,"x_max":0,"o":"m 208 785 b 53 915 118 785 53 838 b 208 1044 53 993 119 1044 b 364 915 297 1044 364 993 b 208 785 364 838 299 785 m 131 917 b 208 843 131 876 158 843 b 286 917 257 843 286 875 b 208 988 286 957 257 988 b 131 917 158 988 131 957 "},"˜":{"ha":569,"x_min":0,"x_max":0,"o":"m 378 785 b 182 874 290 785 235 874 b 113 794 139 874 114 840 l 53 818 b 192 956 57 885 110 956 b 388 867 278 956 335 867 b 457 946 429 867 458 899 l 517 922 b 378 785 521 856 463 785 "},"¯":{"ha":526,"x_min":0,"x_max":0,"o":"m 58 897 l 468 897 l 468 821 l 58 821 "},"¸":{"ha":399,"x_min":0,"x_max":0,"o":"m 183 -275 b 65 -249 147 -275 100 -264 l 58 -169 b 172 -212 99 -197 128 -212 b 246 -167 201 -212 246 -207 b 119 -108 246 -139 210 -118 l 169 0 l 244 0 l 200 -69 b 340 -167 279 -76 340 -108 b 183 -275 340 -233 272 -275 "},"˛":{"ha":375,"x_min":0,"x_max":0,"o":"m 192 -275 b 46 -182 110 -275 46 -243 b 207 0 46 -119 103 -67 l 282 0 b 144 -167 192 -72 144 -117 b 199 -204 144 -193 167 -204 b 301 -160 236 -204 272 -187 l 317 -233 b 192 -275 283 -257 239 -275 "},"":{"ha":628,"x_min":0,"x_max":0,"o":"m 85 756 l 210 756 l 210 181 b 217 0 210 121 211 61 l 85 0 m 226 1029 l 397 1029 l 163 824 l 65 824 m 278 -157 b 360 -185 303 -175 324 -185 b 418 -107 385 -185 418 -175 l 418 756 l 543 756 l 543 -117 b 385 -290 543 -231 489 -290 b 293 -272 350 -290 318 -283 l 278 -157 m 561 1029 l 732 1029 l 497 824 l 400 824 "},"":{"ha":968,"x_min":0,"x_max":0,"o":"m 96 993 l 231 993 l 231 0 l 96 0 m 240 1233 l 411 1233 l 183 1061 l 79 1061 m 468 282 b 607 88 468 160 521 88 b 742 257 693 88 742 154 l 742 813 b 735 993 742 874 740 932 l 876 993 l 876 260 b 607 -19 876 90 778 -19 b 336 238 435 -19 343 97 m 889 1267 l 1060 1267 l 825 1061 l 728 1061 "}}}
